<svg id="e7osVGCnX5a1" xmlns="http://www.w3.org/2000/svg" xmlns:xlink="http://www.w3.org/1999/xlink" viewBox="0 0 626 273" shape-rendering="geometricPrecision" text-rendering="geometricPrecision"><path d="M180.6,171.9c-.6-.8-1.3-.8-2.1-.4-.3.2-.6.4-.8.6-1.7,1.2-1.8,1.7-.6,3.4c1.6,2.2,3.2,4.4,4.8,6.7c1.4,1.9,2.8,3.9,4.3,5.9c1.9,2.6,2.1,2.6,4.6.6.8-.6,1-1.4.4-2.2-3.5-4.9-7-9.7-10.6-14.6Z" fill="#ed1b34"/><path d="M189.6,172.9c.7-.5.8-1.3.4-2-.5-.8-1.3-1-2-.5-1.7,1.1-3.3,2.3-4.9,3.5.6.9,1.2,1.6,1.8,2.5c1.6-1.2,3.2-2.3,4.7-3.5Z" fill="#ed1b34"/><path d="M195.2,178.1c-.5-.8-1.3-1-2-.5-1.7,1.1-3.3,2.3-4.9,3.5.6.9,1.2,1.6,1.8,2.5c1.7-1.2,3.2-2.3,4.7-3.4.7-.6.8-1.3.4-2.1Z" fill="#ed1b34"/><path d="M177.1,176.5c-.4-.6-.8-.5-1.3-.1-1.1.8-2.2,1.6-3.2,2.4-2.6,2.2-3.4,5-2.7,8.2-9.6,6.4-21.1,10.1-33.4,10.1-33.4,0-60.6-27.2-60.6-60.6s27.2-60.6,60.6-60.6c10.6,0,20.5,2.7,29.2,7.5l-21.9,27.2h12.2L135.9,140l37.2-35.3h-11.9L174.1,89v0l3.8-4.6c-4.7-3.8-9.9-6.9-15.5-9.2-8.2-3.5-16.9-5.2-25.9-5.2s-17.7,1.8-25.9,5.2c-7.9,3.3-15,8.1-21.1,14.2s-10.9,13.2-14.2,21.1c-3.5,8.2-5.2,16.9-5.2,25.9s1.8,17.7,5.2,25.9c3.3,7.9,8.1,15,14.2,21.1s13.2,10.9,21.1,14.2c8.2,3.5,16.9,5.2,25.9,5.2s17.7-1.8,25.9-5.2c3.8-1.6,7.5-3.6,10.9-5.9v0c2.4,1.4,4.9,1.9,7.4.8c1.7-.8,3.3-1.9,4.9-3c.2-.1.6-.6.3-1-3-3.8-5.9-7.9-8.8-12Zm1.6,10.8c-1.3.3-4.4.8-4.4.8l.5.7-2.3-.6.9-1.4.4.6l2.7-.9c0,0-1-1.4-1.5-2c.9-.3,4.1-1.3,4.1-1.3l1.1,1.5c0,0-2,.4-3,.6.5.7.9,1.3,1.5,2Z" fill="#ed1b34"/><path d="M147.4,169.8h-21.8c-1.2,0-2.2-1-2.2-2.2v-1.6c0-1.2,1-2.2,2.2-2.2h21.8c1.2,0,2.2,1,2.2,2.2v1.6c0,1.2-1,2.2-2.2,2.2Z" fill="#2d2d2e"/><path d="M146.4,177.8h-19.6c-1.2,0-2.2-1-2.2-2.2v-1.5c0-1.2,1-2.2,2.2-2.2h19.6c1.2,0,2.2,1,2.2,2.2v1.5c-.1,1.2-1,2.2-2.2,2.2Z" fill="#2d2d2e"/><path d="M137.6,185h-2.2c-1.2,0-2.2-1-2.2-2.2v-1c0-1.2,1-2.2,2.2-2.2h2.2c1.2,0,2.2,1,2.2,2.2v1c0,1.2-1,2.2-2.2,2.2Z" fill="#2d2d2e"/><path d="M165.7,114.5l-6.6,6.4c0,4.5-1.2,8.8-3.5,12.9-2.1,3.8-4.3,7.5-6.9,11.1-2.2,3.1-3.8,6.5-4.5,10.3c0,.2-.5.6-.7.6-2.4,0-4.7,0-7.1,0s-4.7,0-7.1,0c-.2,0-.6-.3-.7-.6-.7-3.8-2.3-7.2-4.5-10.3-2.5-3.5-4.8-7.3-6.9-11.1-2.8-5.1-4-10.4-3.3-16.1.7-5.6,3.1-10.4,7.7-13.7c4.7-3.3,9.6-4.9,14.7-4.9c3.8,0,7.6,1,11.2,2.8l4.6-5.8c-3-1.8-6.3-3.2-9.8-3.9-2-.4-4-.6-5.9-.6s-3.9.2-5.9.6c-13.5,2.6-23.7,14.7-24.2,28.4-.2,6.4,1.5,12.2,4.9,17.5c1.8,2.7,3.7,5.4,5.7,8s3.9,5.3,5.2,8.4c.2.5-.3,7.1.9,7.1c4.5,0,8.9,0,13.4,0s8.9,0,13.4,0c1.3,0,.8-6.7.9-7.1c1.3-3.1,3.2-5.8,5.2-8.4s3.9-5.2,5.7-8c3.5-5.3,5.1-11.2,4.9-17.5c0-2.1-.3-4.1-.8-6.1Z" fill="#2d2d2e"/><g><path d="M233.4,193v0c.2.3.5.6.9,1.1.3.5.7,1,1.1,1.5.4.6.7,1.1,1.1,1.7s.7,1.2.9,1.7v0h-2.2c-.3-.5-.6-1.1-.9-1.6s-.7-1.1-1-1.6-.7-1-1-1.4-.6-.8-.9-1.1v0c-.2,0-.4,0-.6,0s-.4,0-.6,0v0h-1.8v5.7h-2v-14.3c.6-.1,1.2-.2,1.9-.3s1.4-.1,1.9-.1v0c2,0,3.6.4,4.7,1.2s1.6,1.9,1.6,3.4v0c0,1-.3,1.8-.8,2.5-.6.8-1.3,1.3-2.3,1.6Zm-3.1-6.8v0c-.9,0-1.5,0-2,.1v0v5.5h1.4c.7,0,1.3,0,1.9-.1s1-.2,1.4-.4.7-.5.9-.8c.2-.4.3-.8.3-1.4v0c0-.5-.1-1-.3-1.4s-.5-.7-.9-.9-.8-.4-1.3-.4c-.3-.2-.8-.2-1.4-.2Zm10.4,7.5v0c0-1,.1-1.8.4-2.5s.7-1.3,1.1-1.8c.5-.5,1-.8,1.6-1.1.6-.2,1.2-.4,1.8-.4v0c1.5,0,2.6.5,3.4,1.4s1.2,2.3,1.2,4.2v0c0,.1,0,.2,0,.3s0,.3,0,.4v0h-7.5c.1,1.1.4,2,1,2.6s1.5.9,2.7.9v0c.7,0,1.3-.1,1.7-.2.5-.1.8-.2,1.1-.3v0l.3,1.6c-.2.1-.7.2-1.2.4-.6.1-1.3.2-2,.2v0c-1,0-1.8-.1-2.5-.4s-1.3-.7-1.7-1.2-.8-1.1-1-1.8c-.2-.8-.4-1.5-.4-2.3Zm2.1-1.1h5.4c0-.9-.2-1.6-.7-2.2s-1.1-.9-1.9-.9v0c-.5,0-.9.1-1.2.3s-.6.4-.9.7c-.2.3-.4.6-.6,1s0,.7-.1,1.1v0Zm14.8,5.1v0c.8,0,1.4-.1,1.8-.3s.6-.5.6-1v0c0-.5-.2-.8-.6-1.1s-1-.6-1.9-1v0c-.4-.2-.8-.3-1.2-.5s-.7-.4-1-.6-.5-.5-.7-.9c-.2-.3-.2-.8-.2-1.2v0c0-1,.4-1.7,1.1-2.3s1.7-.8,2.9-.8v0c.3,0,.6,0,.9,0s.6.1.9.1.5.1.7.2.4.1.5.1v0l-.4,1.7c-.2-.1-.5-.2-1-.3-.4-.1-1-.2-1.6-.2v0c-.5,0-1,.1-1.4.3s-.6.6-.6,1v0c0,.2,0,.4.1.6s.2.3.4.5.4.3.7.4.6.3,1,.4v0c.5.2,1,.4,1.4.6s.8.4,1,.7c.3.3.5.6.7.9.2.4.2.8.2,1.3v0c0,1-.4,1.8-1.1,2.3s-1.8.8-3.2.8v0c-1,0-1.7-.1-2.3-.2-.5-.2-.9-.3-1.1-.4v0l.3-1.7c.2.1.6.2,1.1.4.6.1,1.2.2,2,.2Zm10.8-9.5v10.9h-2v-10.9h2Zm-1-2v0c-.3,0-.6-.1-.9-.3-.2-.2-.4-.5-.4-.9v0c0-.4.1-.7.4-.9.2-.2.5-.3.9-.3v0c.3,0,.6.1.9.3.2.2.4.5.4.9v0c0,.4-.1.7-.4.9-.2.2-.5.3-.9.3Zm13.4,11.2v-6.9c-.2-.2-.6-.4-1-.6s-.9-.3-1.5-.3v0c-.6,0-1,.1-1.4.3s-.7.5-1,.8c-.3.4-.4.8-.6,1.3-.1.5-.2,1-.2,1.6v0c0,1.3.3,2.3.9,2.9s1.5,1,2.5,1v0c.5,0,1,0,1.3-.1.6.1.8.1,1,0v0Zm0-8.7v-5.5l2-.3v16c-.5.1-1,.3-1.7.4s-1.5.2-2.4.2v0c-.8,0-1.6-.1-2.3-.4s-1.2-.6-1.7-1.1-.8-1.1-1.1-1.8-.4-1.5-.4-2.4v0c0-.8.1-1.6.3-2.3s.5-1.3,1-1.8c.4-.5.9-.9,1.5-1.2s1.3-.4,2.1-.4v0c.6,0,1.2.1,1.7.2.4,0,.8.2,1,.4v0Zm6.7,5v0c0-1,.1-1.8.4-2.5s.6-1.3,1.1-1.8s1-.8,1.6-1.1c.6-.2,1.2-.4,1.8-.4v0c1.5,0,2.6.5,3.4,1.4s1.2,2.3,1.2,4.2v0c0,.1,0,.2,0,.3s0,.3,0,.4v0h-7.5c.1,1.1.4,2,1,2.6s1.5.9,2.7.9v0c.7,0,1.3-.1,1.7-.2.5-.1.8-.2,1.1-.3v0l.3,1.6c-.2.1-.6.2-1.2.4-.6.1-1.3.2-2,.2v0c-1,0-1.8-.1-2.5-.4s-1.3-.7-1.7-1.2-.8-1.1-1-1.8c-.3-.8-.4-1.5-.4-2.3Zm2.1-1.1h5.4c0-.9-.2-1.6-.7-2.2s-1.1-.9-1.9-.9v0c-.4,0-.8.1-1.2.3-.3.2-.6.4-.9.7-.2.3-.4.6-.6,1s0,.7-.1,1.1v0Zm12.3,6.5v-10.6c.4-.1,1-.2,1.8-.4.7-.1,1.6-.2,2.6-.2v0c.9,0,1.6.1,2.2.4.6.2,1,.6,1.4,1c.3.4.6,1,.7,1.6s.2,1.3.2,2v0v6.1h-2v-5.7c0-.7,0-1.2-.1-1.7s-.2-.9-.5-1.2c-.2-.3-.5-.5-.8-.6s-.8-.2-1.3-.2v0c-.2,0-.4,0-.7,0-.2,0-.4,0-.6.1-.2,0-.4,0-.6.1-.2,0-.3,0-.3.1v0v9.2h-2Zm15.9-14.3v3.4h4.1v1.6h-4.1v5c0,.5,0,1,.1,1.3.1.4.2.6.4.8s.4.4.6.4c.3.1.5.1.9.1v0c.6,0,1.1-.1,1.4-.2.4-.1.6-.2.8-.3v0l.4,1.6c-.2.1-.5.2-1,.4-.5.1-1,.2-1.7.2v0c-.7,0-1.3-.1-1.8-.3s-.9-.5-1.2-.9-.5-.8-.6-1.4-.2-1.2-.2-1.9v0-9.7l1.9-.1Zm10.5,3.4v10.9h-2v-10.9h2Zm-1-2v0c-.4,0-.7-.1-.9-.3s-.4-.5-.4-.9v0c0-.4.1-.7.4-.9.2-.2.5-.3.9-.3v0c.3,0,.6.1.9.3.2.2.4.5.4.9v0c0,.4-.1.7-.4.9-.2.2-.5.3-.9.3Zm5.8,7.5v0c0-1,.1-1.8.4-2.5s.7-1.3,1.1-1.8c.5-.5,1-.8,1.6-1.1.6-.2,1.2-.4,1.9-.4v0c1.5,0,2.6.5,3.4,1.4s1.2,2.3,1.2,4.2v0c0,.1,0,.2,0,.3s0,.3,0,.4v0h-7.5c.1,1.1.4,2,1,2.6s1.5.9,2.7.9v0c.7,0,1.3-.1,1.7-.2.5-.1.8-.2,1.1-.3v0l.3,1.6c-.2.1-.6.2-1.2.4-.6.1-1.3.2-2,.2v0c-1,0-1.8-.1-2.5-.4s-1.3-.7-1.7-1.2-.8-1.1-1-1.8-.5-1.5-.5-2.3Zm2.1-1.1h5.4c0-.9-.2-1.6-.7-2.2s-1.1-.9-1.9-.9v0c-.4,0-.8.1-1.2.3-.3.2-.6.4-.9.7-.2.3-.4.6-.6,1s-.1.7-.1,1.1v0Zm15.8,5.1l-.3,1.6c-1.2,0-2.1-.3-2.6-.8s-.8-1.3-.8-2.3v0-13.1l1.9-.3v13.1c0,.3,0,.6.1.8s.1.4.3.5c.1.1.3.2.5.3.3.1.6.1.9.2v0Zm17.9-15L361.8,203h-2l7.1-20.3h2Zm16.4,16.7v0c-1,0-2-.2-2.8-.5s-1.6-.8-2.2-1.5c-.6-.6-1.1-1.4-1.4-2.4-.3-.9-.5-2-.5-3.2v0c0-1.2.2-2.3.6-3.2s.9-1.7,1.5-2.4c.6-.6,1.4-1.1,2.2-1.5.8-.3,1.7-.5,2.7-.5v0c.6,0,1.1,0,1.6.1s.9.2,1.3.3.6.2.9.3c.2.1.4.2.5.2v0l-.6,1.7c-.1-.1-.3-.2-.5-.3s-.5-.2-.8-.3-.6-.2-1-.2c-.4-.1-.7-.1-1.1-.1v0c-.8,0-1.5.1-2.1.4s-1.1.7-1.6,1.2c-.4.5-.8,1.1-1,1.8s-.3,1.5-.3,2.4v0c0,.9.1,1.7.3,2.4s.5,1.3.9,1.8.9.9,1.5,1.2s1.3.4,2.1.4v0c.9,0,1.7-.1,2.3-.3s1.1-.4,1.4-.5v0l.5,1.7c-.1.1-.3.2-.5.3-.3.1-.6.2-.9.3-.4.1-.8.2-1.3.2-.6.2-1.1.2-1.7.2Zm18-5.8v0c0,.9-.1,1.6-.4,2.3s-.6,1.3-1.1,1.8-1,.9-1.6,1.2-1.3.4-2.1.4v0c-.7,0-1.4-.1-2.1-.4-.6-.3-1.2-.7-1.6-1.2-.5-.5-.8-1.1-1.1-1.8s-.4-1.5-.4-2.3v0c0-.9.1-1.6.4-2.3.2-.7.6-1.3,1.1-1.8s1-.9,1.6-1.2s1.3-.4,2.1-.4v0c.7,0,1.4.1,2.1.4.6.3,1.2.7,1.6,1.2.5.5.8,1.1,1.1,1.8s.4,1.5.4,2.3Zm-2.1,0v0c0-1.2-.3-2.2-.8-2.9-.6-.7-1.3-1.1-2.3-1.1v0c-1,0-1.7.4-2.3,1.1-.5.7-.8,1.7-.8,2.9v0c0,1.2.3,2.2.8,2.9.6.7,1.3,1.1,2.3,1.1v0c1,0,1.7-.4,2.3-1.1s.8-1.6.8-2.9Zm6.8,5.5v-10.6c.4-.1,1-.2,1.8-.4s1.6-.2,2.6-.2v0c.7,0,1.3.1,1.8.3s.9.5,1.2.8v0c.1-.1.3-.2.5-.3s.5-.2.8-.4c.3-.1.7-.2,1-.3.4-.1.8-.1,1.2-.1v0c.8,0,1.5.1,2.1.4.5.2,1,.6,1.2,1c.3.4.5,1,.6,1.6s.1,1.3.1,2v0v6.1h-2v-5.7c0-.6,0-1.2-.1-1.7s-.2-.8-.4-1.1-.4-.5-.7-.7c-.3-.1-.7-.2-1.2-.2v0c-.7,0-1.2.1-1.6.3s-.7.3-.9.5v0c.1.4.2.8.2,1.2.1.4.1.9.1,1.4v0v6.1h-2v-5.7c0-.6,0-1.2-.1-1.7s-.2-.8-.4-1.1-.4-.5-.7-.7c-.3-.1-.7-.2-1.1-.2v0c-.2,0-.4,0-.6,0s-.4,0-.6.1c-.2,0-.4,0-.5.1-.2,0-.3,0-.3.1v0v9.2h-2Zm20.1,0v-10.6c.4-.1,1-.2,1.8-.4s1.6-.2,2.5-.2v0c.7,0,1.3.1,1.8.3s.9.5,1.2.8v0c.1-.1.2-.2.5-.3.2-.1.5-.2.8-.4.3-.1.7-.2,1-.3.4-.1.8-.1,1.2-.1v0c.8,0,1.5.1,2.1.4.5.2,1,.6,1.2,1s.5,1,.6,1.6.2,1.3.2,2v0v6.1h-2v-5.7c0-.6,0-1.2-.1-1.7s-.2-.8-.4-1.1-.4-.5-.7-.7c-.3-.1-.7-.2-1.2-.2v0c-.7,0-1.2.1-1.6.3s-.7.3-.9.5v0c.1.4.2.8.2,1.2.1.4.1.9.1,1.4v0v6.1h-2v-5.7c0-.6,0-1.2-.1-1.7s-.2-.8-.4-1.1-.4-.5-.7-.7-.7-.2-1.1-.2v0c-.2,0-.4,0-.6,0s-.4,0-.6.1c-.2,0-.4,0-.6.1-.2,0-.3,0-.3.1v0v9.2h-1.9Zm19.5-5.4v0c0-1,.1-1.8.4-2.5s.6-1.3,1.1-1.8s1-.8,1.6-1.1c.6-.2,1.2-.4,1.8-.4v0c1.5,0,2.6.5,3.4,1.4s1.2,2.3,1.2,4.2v0c0,.1,0,.2,0,.3s0,.3,0,.4v0h-7.5c.1,1.1.4,2,1,2.6s1.5.9,2.7.9v0c.7,0,1.3-.1,1.7-.2.5-.1.8-.2,1.1-.3v0l.3,1.6c-.2.1-.7.2-1.2.4-.6.1-1.3.2-2,.2v0c-1,0-1.8-.1-2.5-.4s-1.3-.7-1.7-1.2-.8-1.1-1-1.8c-.3-.8-.4-1.5-.4-2.3Zm2.1-1.1h5.4c0-.9-.2-1.6-.7-2.2s-1.1-.9-1.9-.9v0c-.5,0-.9.1-1.2.3s-.6.4-.9.7c-.2.3-.4.6-.6,1c0,.3-.1.7-.1,1.1v0Zm16.3-4.7v0c.2,0,.4,0,.6,0s.4.1.6.1.4.1.6.1.3.1.4.1v0l-.3,1.7c-.2-.1-.4-.1-.8-.2s-.8-.1-1.4-.1v0c-.4,0-.7,0-1.1.1s-.6.1-.7.2v0v9.2h-2v-10.5c.5-.2,1-.3,1.7-.5s1.5-.2,2.4-.2Zm10.1,11.4v0c-.9,0-1.7-.1-2.3-.4s-1.2-.7-1.7-1.2-.8-1.1-1-1.8-.3-1.5-.3-2.3v0c0-.8.1-1.6.4-2.3.2-.7.6-1.3,1-1.8.5-.5,1-.9,1.6-1.2.7-.3,1.4-.4,2.2-.4v0c.5,0,1,0,1.5.1s1,.2,1.4.4v0l-.4,1.7c-.3-.1-.6-.2-1-.3s-.8-.1-1.2-.1v0c-1.1,0-1.9.3-2.5,1s-.9,1.7-.9,3v0c0,.6.1,1.1.2,1.6s.3.9.6,1.3.7.6,1.1.8s1,.3,1.6.3v0c.5,0,1,0,1.4-.1s.8-.2,1-.3v0l.3,1.6c-.1.1-.3.1-.5.2s-.5.1-.7.2c-.3,0-.5.1-.9.1-.3-.1-.6-.1-.9-.1Zm9-11.1v10.9h-1.9v-10.9h1.9Zm-1-2v0c-.4,0-.6-.1-.9-.3-.2-.2-.4-.5-.4-.9v0c0-.4.1-.7.4-.9.2-.2.5-.3.9-.3v0c.3,0,.6.1.9.3.2.2.4.5.4.9v0c0,.4-.1.7-.4.9s-.6.3-.9.3Zm10,11.5v0c.5,0,.9,0,1.2,0c.4,0,.6-.1.9-.1v0-3.3c-.1-.1-.4-.1-.7-.2-.3,0-.7-.1-1.1-.1v0c-.3,0-.6,0-.9.1-.3,0-.6.1-.9.3-.3.1-.5.3-.7.5s-.3.5-.3.9v0c0,.7.2,1.2.7,1.5.4.3,1,.4,1.8.4Zm-.2-9.8v0c.8,0,1.5.1,2,.3s1,.5,1.3.9.6.8.7,1.3.2,1.1.2,1.7v0v6.8c-.2,0-.4.1-.7.1s-.6.1-1,.1-.8.1-1.2.1-.9.1-1.3.1v0c-.6,0-1.2-.1-1.7-.2s-1-.3-1.3-.6c-.4-.3-.7-.6-.9-1.1-.2-.4-.3-1-.3-1.6v0c0-.6.1-1.1.4-1.6.2-.4.6-.8,1-1c.4-.3.9-.5,1.5-.6s1.1-.2,1.8-.2v0c.2,0,.4,0,.6,0s.4,0,.6.1c.2,0,.4.1.5.1s.2,0,.3.1v0-.6c0-.3,0-.6-.1-.9s-.2-.6-.4-.8-.4-.4-.8-.6c-.3-.1-.7-.2-1.2-.2v0c-.6,0-1.2,0-1.7.1s-.8.2-1.1.3v0l-.2-1.6c.3-.1.7-.2,1.3-.3.4-.1,1.1-.2,1.7-.2Zm13,9.8l-.3,1.6c-1.2,0-2.1-.3-2.6-.8s-.8-1.3-.8-2.3v0-13.1l2-.3v13.1c0,.3,0,.6.1.8s.1.4.3.5c.1.1.3.2.5.3.3.1.5.1.8.2v0Z" fill="#ed1b34"/></g><g><path d="M204.8,157.7h-7.8l-15-45h6.3l12.6,38.4l12.6-38.4h6.3l-15,45Zm38.6,0h-17.4v-45h16.7c4,0,7,1,9,2.9c2,2,3,4.8,3,8.7v0c0,1.9-.3,3.5-.8,4.8-.6,1.4-1.3,2.5-2.3,3.4s-2,1.5-3.2,1.8v0c.9.2,1.7.6,2.6,1.1s1.8,1.2,2.6,2c.8.9,1.4,1.9,1.9,3.2s.7,2.8.7,4.6v0c0,3.1-.5,5.6-1.6,7.4-1,1.8-2.5,3.1-4.4,3.9-1.8.8-4.1,1.2-6.8,1.2v0ZM232.2,137v15.2h11c1.5,0,2.7-.2,3.8-.7s1.9-1.3,2.5-2.4.9-2.7.9-4.8v0c0-1.5-.3-2.8-1-3.9-.6-1.1-1.5-1.9-2.6-2.5s-2.3-.9-3.6-.9v0h-11Zm0-18.8v14h10.7c1.7,0,3.2-.6,4.2-1.9c1.1-1.3,1.6-3,1.7-5v0c.1-2.6-.5-4.5-1.6-5.5-1.2-1-2.7-1.6-4.5-1.5v0h-10.5Zm57.3,39.7v0c-1,0-2.1-.1-3.2-.3s-2.2-.6-3.3-1.2c-1-.6-1.9-1.5-2.5-2.7s-1-2.9-1-4.9v0-26.7c0-1.8.3-3.3.8-4.5s1.3-2.2,2.2-2.9s1.9-1.2,3-1.5s2.2-.5,3.3-.5v0c2.6,0,5.1.1,7.3.2s4.3.1,6.2.2s3.7.2,5.5.2v0v5.1h-17.3c-1.5,0-2.7.4-3.5,1.2s-1.3,2-1.3,3.7v0v9.3l19.4.4v4.8l-19.4.4v9.2c0,1.4.2,2.4.7,3.1s1.1,1.2,1.8,1.4c.8.2,1.6.4,2.4.4v0h17.2v5.1c-1.9.1-3.8.2-5.9.3s-4.2.2-6.2.2c-2.1,0-4.2,0-6.2,0Zm6.7-48.5h-3.6l5.9-8.4h5.1l-7.4,8.4Zm32.5,48.3h-4.3c-2,0-3.7-.3-5-1-1.4-.7-2.4-1.8-3.1-3.3s-1-3.6-1-6.2v0-36.1h6.1v35.3c0,1.7.2,3,.5,3.9s.8,1.6,1.5,1.9c.6.4,1.4.6,2.2.7v0l3.1.4v4.4Zm17.8.3v0c-3.5,0-6.2-.5-8.3-1.5s-3.5-2.7-4.4-5.2c-.9-2.4-1.3-5.8-1.3-10v0c0-4.3.4-7.7,1.3-10.2.9-2.4,2.3-4.1,4.4-5.1c2-1,4.8-1.5,8.2-1.5v0c3,0,5.4.3,7.3,1c1.9.6,3.2,1.7,4.1,3.3s1.3,3.8,1.3,6.7v0c0,2-.4,3.6-1.2,4.8s-1.9,2-3.4,2.6c-1.4.5-3.2.8-5.2.8v0h-10.8c0,2.4.3,4.2.8,5.6s1.4,2.4,2.8,3c1.3.6,3.3.9,5.8.9v0h10.2v3.7c-1.7.2-3.5.5-5.4.7-1.7.3-3.8.4-6.2.4Zm-7.9-18.1v0h10.3c1.6,0,2.8-.3,3.6-.9s1.2-1.7,1.2-3.4v0c0-1.6-.2-2.9-.7-3.8s-1.2-1.6-2.3-2-2.5-.6-4.2-.6v0c-2,0-3.6.3-4.7.9-1.2.6-2,1.7-2.4,3.2-.6,1.5-.8,3.7-.8,6.6ZM378.7,158v0c-1.9,0-3.7-.3-5.3-.8s-3-1.4-4.2-2.6-2.1-2.9-2.8-5.1c-.6-2.2-1-4.9-1-8.2v0c0-3.4.3-6.2.9-8.3.6-2.2,1.5-3.9,2.7-5.1s2.6-2.1,4.2-2.6c1.7-.5,3.5-.7,5.6-.7v0c1.7,0,3.5.1,5.4.2c1.9.2,3.7.4,5.5.8v0v3.6h-9.2c-2,0-3.7.3-5,.9s-2.3,1.8-3,3.6c-.6,1.8-1,4.3-1,7.7v0c0,3.2.3,5.7,1,7.4s1.7,2.9,3,3.5s3,.9,5,.9v0h9.6v3.5c-.9.2-2,.5-3.3.6-1.3.2-2.6.3-4,.4-1.2.3-2.7.3-4.1.3Zm34-.3h-4.9c-2.2,0-4-.4-5.5-1.1-1.4-.7-2.5-1.9-3.2-3.4-.7-1.6-1-3.7-1-6.4v0l.2-16.8h-5.2v-4l5.3-1l.9-9.2h4.8v9.2h8.9v5h-8.9v16.7c0,1.3.1,2.3.4,3.1s.6,1.4,1,1.8.9.7,1.5.9c.5.2,1,.3,1.5.3v0l4,.4v4.5Zm12.7,0h-6.1v-32.7h4.7l1.4,5.5c1.4-1.7,2.9-3.1,4.6-4.2s3.7-1.7,6-1.7v0c.5,0,1,0,1.5.1s1,.2,1.4.3v0v6.3c-.6-.1-1.2-.2-1.8-.2-.6-.1-1.2-.1-1.9-.1v0c-1.4,0-2.6.2-3.7.5s-2.1.8-3.1,1.5-2,1.5-3,2.5v0v22.2ZM450,119.6h-4.5c-.7,0-1.1-.3-1.1-1v0-5.1c0-.7.4-1.1,1.1-1.1v0h4.5c.3,0,.6.1.7.3.2.2.2.5.2.8v0v5.1c.1.6-.2,1-.9,1v0Zm.8,38.1h-6.1v-32.7h6.1v32.7Zm35.4,14.4h-6.2v-17.7c-1.4,1-3,1.9-4.8,2.6s-3.6,1-5.3,1v0c-2.9,0-5.2-.6-6.9-1.8s-3-3.1-3.7-5.6-1.1-5.6-1.1-9.3v0c0-3.9.4-7.1,1.3-9.5.9-2.5,2.2-4.3,4-5.4c1.8-1.2,4.1-1.7,6.9-1.7v0c2,0,3.9.1,5.8.2s3.7.2,5.4.4c1.7.1,3.2.3,4.4.5v0v46.3ZM471.5,153v0c1.5,0,2.9-.2,4.4-.7c1.5-.4,2.8-1,4.1-1.8v0-21.3h-7.9c-1.9,0-3.5.5-4.6,1.4-1.1,1-1.9,2.3-2.4,4.1-.5,1.7-.7,3.9-.7,6.3v0c0,2.9.2,5.3.7,7s1.2,3,2.3,3.8c1,.9,2.4,1.2,4.1,1.2Zm32.6,5v0c-3.1,0-5.4-.8-7.1-2.5-1.7-1.6-2.5-4.2-2.5-7.5v0-23h6.1v21.3c0,2.4.6,4.1,1.7,4.9c1.1.9,2.7,1.3,4.7,1.3v0c1.6,0,3.2-.3,4.7-.8s2.9-1.2,4.4-2.1v0-24.6h6.1v32.6h-4.9l-1.2-3.5c-1.6,1-3.4,1.9-5.5,2.7-2.1.9-4.3,1.2-6.5,1.2Zm39.3,0v0c-3.5,0-6.2-.5-8.3-1.5s-3.5-2.7-4.4-5.2c-.9-2.4-1.3-5.8-1.3-10v0c0-4.3.4-7.7,1.3-10.2.9-2.4,2.3-4.1,4.4-5.1c2-1,4.8-1.5,8.2-1.5v0c3,0,5.4.3,7.3,1c1.9.6,3.2,1.7,4.1,3.3s1.3,3.8,1.3,6.7v0c0,2-.4,3.6-1.2,4.8s-1.9,2-3.3,2.6c-1.4.5-3.2.8-5.2.8v0h-10.8c0,2.4.3,4.2.8,5.6s1.4,2.4,2.7,3s3.3.9,5.8.9v0h10.2v3.7c-1.8.2-3.5.5-5.4.7-1.7.3-3.8.4-6.2.4Zm-8-18.1v0h10.3c1.6,0,2.8-.3,3.6-.9s1.2-1.7,1.2-3.4v0c0-1.6-.2-2.9-.7-3.8s-1.2-1.6-2.3-2-2.5-.6-4.2-.6v0c-2,0-3.6.3-4.7.9-1.2.6-2,1.7-2.4,3.2-.5,1.5-.8,3.7-.8,6.6Z" fill="#2d2d2e"/></g><text dx="0" dy="0" font-family="&quot;Tahoma&quot;" font-size="22.475" font-weight="400" transform="translate(562.778146 156.936098)" stroke-width="0"><tspan y="0" font-weight="400" stroke-width="0"><![CDATA[
Inc.
]]></tspan></text></svg>
