<?xml version="1.0" encoding="utf-8"?>
<!-- Generator: Adobe Illustrator 26.2.1, SVG Export Plug-In . SVG Version: 6.00 Build 0)  -->
<svg version="1.1" id="Layer_1" xmlns="http://www.w3.org/2000/svg" xmlns:xlink="http://www.w3.org/1999/xlink" x="0px" y="0px"
	 viewBox="0 0 626 273" style="enable-background:new 0 0 626 273;" xml:space="preserve">
<style type="text/css">
	.st0{fill:#ED1B34;}
	.st1{fill:#2D2D2E;}
</style>
<path class="st0" d="M180.6,171.9c-0.6-0.8-1.3-0.8-2.1-0.4c-0.3,0.2-0.6,0.4-0.8,0.6c-1.7,1.2-1.8,1.7-0.6,3.4
	c1.6,2.2,3.2,4.4,4.8,6.7c1.4,1.9,2.8,3.9,4.3,5.9c1.9,2.6,2.1,2.6,4.6,0.6c0.8-0.6,1-1.4,0.4-2.2
	C187.7,181.6,184.2,176.8,180.6,171.9z"/>
<path class="st0" d="M189.6,172.9c0.7-0.5,0.8-1.3,0.4-2c-0.5-0.8-1.3-1-2-0.5c-1.7,1.1-3.3,2.3-4.9,3.5c0.6,0.9,1.2,1.6,1.8,2.5
	C186.5,175.2,188.1,174.1,189.6,172.9z"/>
<path class="st0" d="M195.2,178.1c-0.5-0.8-1.3-1-2-0.5c-1.7,1.1-3.3,2.3-4.9,3.5c0.6,0.9,1.2,1.6,1.8,2.5c1.7-1.2,3.2-2.3,4.7-3.4
	C195.5,179.6,195.6,178.9,195.2,178.1z"/>
<path class="st0" d="M177.1,176.5c-0.4-0.6-0.8-0.5-1.3-0.1c-1.1,0.8-2.2,1.6-3.2,2.4c-2.6,2.2-3.4,5-2.7,8.2
	c-9.6,6.4-21.1,10.1-33.4,10.1c-33.4,0-60.6-27.2-60.6-60.6s27.2-60.6,60.6-60.6c10.6,0,20.5,2.7,29.2,7.5l-21.9,27.2H156L135.9,140
	l37.2-35.3h-11.9L174.1,89l0,0l3.8-4.6c-4.7-3.8-9.9-6.9-15.5-9.2c-8.2-3.5-16.9-5.2-25.9-5.2s-17.7,1.8-25.9,5.2
	c-7.9,3.3-15,8.1-21.1,14.2c-6.1,6.1-10.9,13.2-14.2,21.1c-3.5,8.2-5.2,16.9-5.2,25.9c0,9,1.8,17.7,5.2,25.9
	c3.3,7.9,8.1,15,14.2,21.1c6.1,6.1,13.2,10.9,21.1,14.2c8.2,3.5,16.9,5.2,25.9,5.2s17.7-1.8,25.9-5.2c3.8-1.6,7.5-3.6,10.9-5.9l0,0
	c2.4,1.4,4.9,1.9,7.4,0.8c1.7-0.8,3.3-1.9,4.9-3c0.2-0.1,0.6-0.6,0.3-1C182.9,184.7,180,180.6,177.1,176.5z M178.7,187.3
	c-1.3,0.3-4.4,0.8-4.4,0.8l0.5,0.7l-2.3-0.6l0.9-1.4l0.4,0.6l2.7-0.9c0,0-1-1.4-1.5-2c0.9-0.3,4.1-1.3,4.1-1.3l1.1,1.5
	c0,0-2,0.4-3,0.6C177.7,186,178.1,186.6,178.7,187.3z"/>
<path class="st1" d="M147.4,169.8h-21.8c-1.2,0-2.2-1-2.2-2.2V166c0-1.2,1-2.2,2.2-2.2h21.8c1.2,0,2.2,1,2.2,2.2v1.6
	C149.6,168.8,148.6,169.8,147.4,169.8z"/>
<path class="st1" d="M146.4,177.8h-19.6c-1.2,0-2.2-1-2.2-2.2v-1.5c0-1.2,1-2.2,2.2-2.2h19.6c1.2,0,2.2,1,2.2,2.2v1.5
	C148.5,176.8,147.6,177.8,146.4,177.8z"/>
<path class="st1" d="M137.6,185h-2.2c-1.2,0-2.2-1-2.2-2.2v-1c0-1.2,1-2.2,2.2-2.2h2.2c1.2,0,2.2,1,2.2,2.2v1
	C139.8,184,138.8,185,137.6,185z"/>
<path class="st1" d="M165.7,114.5l-6.6,6.4c0,4.5-1.2,8.8-3.5,12.9c-2.1,3.8-4.3,7.5-6.9,11.1c-2.2,3.1-3.8,6.5-4.5,10.3
	c0,0.2-0.5,0.6-0.7,0.6c-2.4,0-4.7,0-7.1,0c-2.4,0-4.7,0-7.1,0c-0.2,0-0.6-0.3-0.7-0.6c-0.7-3.8-2.3-7.2-4.5-10.3
	c-2.5-3.5-4.8-7.3-6.9-11.1c-2.8-5.1-4-10.4-3.3-16.1c0.7-5.6,3.1-10.4,7.7-13.7c4.7-3.3,9.6-4.9,14.7-4.9c3.8,0,7.6,1,11.2,2.8
	l4.6-5.8c-3-1.8-6.3-3.2-9.8-3.9c-2-0.4-4-0.6-5.9-0.6s-3.9,0.2-5.9,0.6c-13.5,2.6-23.7,14.7-24.2,28.4c-0.2,6.4,1.5,12.2,4.9,17.5
	c1.8,2.7,3.7,5.4,5.7,8c2,2.6,3.9,5.3,5.2,8.4c0.2,0.5-0.3,7.1,0.9,7.1c4.5,0,8.9,0,13.4,0s8.9,0,13.4,0c1.3,0,0.8-6.7,0.9-7.1
	c1.3-3.1,3.2-5.8,5.2-8.4c2-2.6,3.9-5.2,5.7-8c3.5-5.3,5.1-11.2,4.9-17.5C166.5,118.5,166.2,116.5,165.7,114.5z"/>
<g>
	<path class="st0" d="M233.4,193L233.4,193c0.2,0.3,0.5,0.6,0.9,1.1c0.3,0.5,0.7,1,1.1,1.5c0.4,0.6,0.7,1.1,1.1,1.7
		c0.4,0.6,0.7,1.2,0.9,1.7l0,0h-2.2c-0.3-0.5-0.6-1.1-0.9-1.6c-0.3-0.5-0.7-1.1-1-1.6c-0.3-0.5-0.7-1-1-1.4
		c-0.3-0.4-0.6-0.8-0.9-1.1l0,0c-0.2,0-0.4,0-0.6,0c-0.2,0-0.4,0-0.6,0l0,0h-1.8v5.7h-2v-14.3c0.6-0.1,1.2-0.2,1.9-0.3
		c0.7-0.1,1.4-0.1,1.9-0.1l0,0c2,0,3.6,0.4,4.7,1.2c1.1,0.8,1.6,1.9,1.6,3.4l0,0c0,1-0.3,1.8-0.8,2.5
		C235.1,192.2,234.4,192.7,233.4,193z M230.3,186.2L230.3,186.2c-0.9,0-1.5,0-2,0.1l0,0v5.5h1.4c0.7,0,1.3,0,1.9-0.1
		c0.6-0.1,1-0.2,1.4-0.4c0.4-0.2,0.7-0.5,0.9-0.8c0.2-0.4,0.3-0.8,0.3-1.4l0,0c0-0.5-0.1-1-0.3-1.4c-0.2-0.4-0.5-0.7-0.9-0.9
		c-0.4-0.2-0.8-0.4-1.3-0.4C231.4,186.2,230.9,186.2,230.3,186.2z M240.7,193.7L240.7,193.7c0-1,0.1-1.8,0.4-2.5s0.7-1.3,1.1-1.8
		c0.5-0.5,1-0.8,1.6-1.1c0.6-0.2,1.2-0.4,1.8-0.4l0,0c1.5,0,2.6,0.5,3.4,1.4c0.8,0.9,1.2,2.3,1.2,4.2l0,0c0,0.1,0,0.2,0,0.3
		s0,0.3,0,0.4l0,0h-7.5c0.1,1.1,0.4,2,1,2.6c0.6,0.6,1.5,0.9,2.7,0.9l0,0c0.7,0,1.3-0.1,1.7-0.2c0.5-0.1,0.8-0.2,1.1-0.3l0,0
		l0.3,1.6c-0.2,0.1-0.7,0.2-1.2,0.4c-0.6,0.1-1.3,0.2-2,0.2l0,0c-1,0-1.8-0.1-2.5-0.4c-0.7-0.3-1.3-0.7-1.7-1.2
		c-0.4-0.5-0.8-1.1-1-1.8C240.9,195.2,240.7,194.5,240.7,193.7z M242.8,192.6h5.4c0-0.9-0.2-1.6-0.7-2.2c-0.5-0.6-1.1-0.9-1.9-0.9
		l0,0c-0.5,0-0.9,0.1-1.2,0.3c-0.3,0.2-0.6,0.4-0.9,0.7c-0.2,0.3-0.4,0.6-0.6,1S242.9,192.2,242.8,192.6L242.8,192.6z M257.6,197.7
		L257.6,197.7c0.8,0,1.4-0.1,1.8-0.3c0.4-0.2,0.6-0.5,0.6-1l0,0c0-0.5-0.2-0.8-0.6-1.1c-0.4-0.3-1-0.6-1.9-1l0,0
		c-0.4-0.2-0.8-0.3-1.2-0.5c-0.4-0.2-0.7-0.4-1-0.6c-0.3-0.2-0.5-0.5-0.7-0.9c-0.2-0.3-0.2-0.8-0.2-1.2l0,0c0-1,0.4-1.7,1.1-2.3
		c0.7-0.6,1.7-0.8,2.9-0.8l0,0c0.3,0,0.6,0,0.9,0c0.3,0,0.6,0.1,0.9,0.1c0.3,0,0.5,0.1,0.7,0.2c0.2,0.1,0.4,0.1,0.5,0.1l0,0
		l-0.4,1.7c-0.2-0.1-0.5-0.2-1-0.3c-0.4-0.1-1-0.2-1.6-0.2l0,0c-0.5,0-1,0.1-1.4,0.3c-0.4,0.2-0.6,0.6-0.6,1l0,0
		c0,0.2,0,0.4,0.1,0.6c0.1,0.2,0.2,0.3,0.4,0.5c0.2,0.2,0.4,0.3,0.7,0.4c0.3,0.1,0.6,0.3,1,0.4l0,0c0.5,0.2,1,0.4,1.4,0.6
		c0.4,0.2,0.8,0.4,1,0.7c0.3,0.3,0.5,0.6,0.7,0.9c0.2,0.4,0.2,0.8,0.2,1.3l0,0c0,1-0.4,1.8-1.1,2.3c-0.7,0.5-1.8,0.8-3.2,0.8l0,0
		c-1,0-1.7-0.1-2.3-0.2c-0.5-0.2-0.9-0.3-1.1-0.4l0,0l0.3-1.7c0.2,0.1,0.6,0.2,1.1,0.4C256.2,197.6,256.8,197.7,257.6,197.7z
		 M268.4,188.2v10.9h-2v-10.9H268.4z M267.4,186.2L267.4,186.2c-0.3,0-0.6-0.1-0.9-0.3c-0.2-0.2-0.4-0.5-0.4-0.9l0,0
		c0-0.4,0.1-0.7,0.4-0.9c0.2-0.2,0.5-0.3,0.9-0.3l0,0c0.3,0,0.6,0.1,0.9,0.3c0.2,0.2,0.4,0.5,0.4,0.9l0,0c0,0.4-0.1,0.7-0.4,0.9
		C268.1,186.1,267.8,186.2,267.4,186.2z M280.8,197.4v-6.9c-0.2-0.2-0.6-0.4-1-0.6c-0.4-0.2-0.9-0.3-1.5-0.3l0,0
		c-0.6,0-1,0.1-1.4,0.3c-0.4,0.2-0.7,0.5-1,0.8c-0.3,0.4-0.4,0.8-0.6,1.3c-0.1,0.5-0.2,1-0.2,1.6l0,0c0,1.3,0.3,2.3,0.9,2.9
		s1.5,1,2.5,1l0,0c0.5,0,1,0,1.3-0.1C280.4,197.5,280.6,197.5,280.8,197.4L280.8,197.4z M280.8,188.7v-5.5l2-0.3v16
		c-0.5,0.1-1,0.3-1.7,0.4c-0.7,0.1-1.5,0.2-2.4,0.2l0,0c-0.8,0-1.6-0.1-2.3-0.4c-0.7-0.3-1.2-0.6-1.7-1.1c-0.5-0.5-0.8-1.1-1.1-1.8
		s-0.4-1.5-0.4-2.4l0,0c0-0.8,0.1-1.6,0.3-2.3c0.2-0.7,0.5-1.3,1-1.8c0.4-0.5,0.9-0.9,1.5-1.2c0.6-0.3,1.3-0.4,2.1-0.4l0,0
		c0.6,0,1.2,0.1,1.7,0.2C280.2,188.3,280.6,188.5,280.8,188.7L280.8,188.7z M287.5,193.7L287.5,193.7c0-1,0.1-1.8,0.4-2.5
		s0.6-1.3,1.1-1.8c0.5-0.5,1-0.8,1.6-1.1c0.6-0.2,1.2-0.4,1.8-0.4l0,0c1.5,0,2.6,0.5,3.4,1.4c0.8,0.9,1.2,2.3,1.2,4.2l0,0
		c0,0.1,0,0.2,0,0.3s0,0.3,0,0.4l0,0h-7.5c0.1,1.1,0.4,2,1,2.6s1.5,0.9,2.7,0.9l0,0c0.7,0,1.3-0.1,1.7-0.2c0.5-0.1,0.8-0.2,1.1-0.3
		l0,0l0.3,1.6c-0.2,0.1-0.6,0.2-1.2,0.4c-0.6,0.1-1.3,0.2-2,0.2l0,0c-1,0-1.8-0.1-2.5-0.4s-1.3-0.7-1.7-1.2c-0.4-0.5-0.8-1.1-1-1.8
		C287.6,195.2,287.5,194.5,287.5,193.7z M289.6,192.6h5.4c0-0.9-0.2-1.6-0.7-2.2c-0.5-0.6-1.1-0.9-1.9-0.9l0,0
		c-0.4,0-0.8,0.1-1.2,0.3c-0.3,0.2-0.6,0.4-0.9,0.7c-0.2,0.3-0.4,0.6-0.6,1S289.7,192.2,289.6,192.6L289.6,192.6z M301.9,199.1
		v-10.6c0.4-0.1,1-0.2,1.8-0.4c0.7-0.1,1.6-0.2,2.6-0.2l0,0c0.9,0,1.6,0.1,2.2,0.4c0.6,0.2,1,0.6,1.4,1c0.3,0.4,0.6,1,0.7,1.6
		c0.1,0.6,0.2,1.3,0.2,2l0,0v6.1h-2v-5.7c0-0.7,0-1.2-0.1-1.7c-0.1-0.5-0.2-0.9-0.5-1.2c-0.2-0.3-0.5-0.5-0.8-0.6
		c-0.3-0.1-0.8-0.2-1.3-0.2l0,0c-0.2,0-0.4,0-0.7,0c-0.2,0-0.4,0-0.6,0.1c-0.2,0-0.4,0-0.6,0.1c-0.2,0-0.3,0-0.3,0.1l0,0v9.2H301.9z
		 M317.8,184.8v3.4h4.1v1.6h-4.1v5c0,0.5,0,1,0.1,1.3c0.1,0.4,0.2,0.6,0.4,0.8c0.2,0.2,0.4,0.4,0.6,0.4c0.3,0.1,0.5,0.1,0.9,0.1l0,0
		c0.6,0,1.1-0.1,1.4-0.2c0.4-0.1,0.6-0.2,0.8-0.3l0,0l0.4,1.6c-0.2,0.1-0.5,0.2-1,0.4c-0.5,0.1-1,0.2-1.7,0.2l0,0
		c-0.7,0-1.3-0.1-1.8-0.3c-0.5-0.2-0.9-0.5-1.2-0.9c-0.3-0.4-0.5-0.8-0.6-1.4s-0.2-1.2-0.2-1.9l0,0v-9.7L317.8,184.8z M328.3,188.2
		v10.9h-2v-10.9H328.3z M327.3,186.2L327.3,186.2c-0.4,0-0.7-0.1-0.9-0.3c-0.2-0.2-0.4-0.5-0.4-0.9l0,0c0-0.4,0.1-0.7,0.4-0.9
		c0.2-0.2,0.5-0.3,0.9-0.3l0,0c0.3,0,0.6,0.1,0.9,0.3c0.2,0.2,0.4,0.5,0.4,0.9l0,0c0,0.4-0.1,0.7-0.4,0.9
		C328,186.1,327.7,186.2,327.3,186.2z M333.1,193.7L333.1,193.7c0-1,0.1-1.8,0.4-2.5s0.7-1.3,1.1-1.8c0.5-0.5,1-0.8,1.6-1.1
		c0.6-0.2,1.2-0.4,1.9-0.4l0,0c1.5,0,2.6,0.5,3.4,1.4c0.8,0.9,1.2,2.3,1.2,4.2l0,0c0,0.1,0,0.2,0,0.3s0,0.3,0,0.4l0,0h-7.5
		c0.1,1.1,0.4,2,1,2.6c0.6,0.6,1.5,0.9,2.7,0.9l0,0c0.7,0,1.3-0.1,1.7-0.2c0.5-0.1,0.8-0.2,1.1-0.3l0,0l0.3,1.6
		c-0.2,0.1-0.6,0.2-1.2,0.4c-0.6,0.1-1.3,0.2-2,0.2l0,0c-1,0-1.8-0.1-2.5-0.4s-1.3-0.7-1.7-1.2c-0.4-0.5-0.8-1.1-1-1.8
		S333.1,194.5,333.1,193.7z M335.2,192.6h5.4c0-0.9-0.2-1.6-0.7-2.2c-0.5-0.6-1.1-0.9-1.9-0.9l0,0c-0.4,0-0.8,0.1-1.2,0.3
		c-0.3,0.2-0.6,0.4-0.9,0.7c-0.2,0.3-0.4,0.6-0.6,1S335.2,192.2,335.2,192.6L335.2,192.6z M351,197.7l-0.3,1.6
		c-1.2,0-2.1-0.3-2.6-0.8c-0.5-0.5-0.8-1.3-0.8-2.3l0,0v-13.1l1.9-0.3v13.1c0,0.3,0,0.6,0.1,0.8c0.1,0.2,0.1,0.4,0.3,0.5
		c0.1,0.1,0.3,0.2,0.5,0.3C350.4,197.6,350.7,197.6,351,197.7L351,197.7z M368.9,182.7l-7.1,20.3h-2l7.1-20.3H368.9z M385.3,199.4
		L385.3,199.4c-1,0-2-0.2-2.8-0.5c-0.8-0.3-1.6-0.8-2.2-1.5c-0.6-0.6-1.1-1.4-1.4-2.4c-0.3-0.9-0.5-2-0.5-3.2l0,0
		c0-1.2,0.2-2.3,0.6-3.2c0.4-0.9,0.9-1.7,1.5-2.4c0.6-0.6,1.4-1.1,2.2-1.5c0.8-0.3,1.7-0.5,2.7-0.5l0,0c0.6,0,1.1,0,1.6,0.1
		c0.5,0.1,0.9,0.2,1.3,0.3c0.4,0.1,0.6,0.2,0.9,0.3c0.2,0.1,0.4,0.2,0.5,0.2l0,0l-0.6,1.7c-0.1-0.1-0.3-0.2-0.5-0.3
		c-0.2-0.1-0.5-0.2-0.8-0.3c-0.3-0.1-0.6-0.2-1-0.2c-0.4-0.1-0.7-0.1-1.1-0.1l0,0c-0.8,0-1.5,0.1-2.1,0.4c-0.6,0.3-1.1,0.7-1.6,1.2
		c-0.4,0.5-0.8,1.1-1,1.8c-0.2,0.7-0.3,1.5-0.3,2.4l0,0c0,0.9,0.1,1.7,0.3,2.4c0.2,0.7,0.5,1.3,0.9,1.8c0.4,0.5,0.9,0.9,1.5,1.2
		c0.6,0.3,1.3,0.4,2.1,0.4l0,0c0.9,0,1.7-0.1,2.3-0.3c0.6-0.2,1.1-0.4,1.4-0.5l0,0l0.5,1.7c-0.1,0.1-0.3,0.2-0.5,0.3
		c-0.3,0.1-0.6,0.2-0.9,0.3c-0.4,0.1-0.8,0.2-1.3,0.2C386.4,199.4,385.9,199.4,385.3,199.4z M403.3,193.6L403.3,193.6
		c0,0.9-0.1,1.6-0.4,2.3c-0.3,0.7-0.6,1.3-1.1,1.8s-1,0.9-1.6,1.2c-0.6,0.3-1.3,0.4-2.1,0.4l0,0c-0.7,0-1.4-0.1-2.1-0.4
		c-0.6-0.3-1.2-0.7-1.6-1.2c-0.5-0.5-0.8-1.1-1.1-1.8c-0.3-0.7-0.4-1.5-0.4-2.3l0,0c0-0.9,0.1-1.6,0.4-2.3c0.2-0.7,0.6-1.3,1.1-1.8
		c0.5-0.5,1-0.9,1.6-1.2c0.6-0.3,1.3-0.4,2.1-0.4l0,0c0.7,0,1.4,0.1,2.1,0.4c0.6,0.3,1.2,0.7,1.6,1.2c0.5,0.5,0.8,1.1,1.1,1.8
		S403.3,192.8,403.3,193.6z M401.2,193.6L401.2,193.6c0-1.2-0.3-2.2-0.8-2.9c-0.6-0.7-1.3-1.1-2.3-1.1l0,0c-1,0-1.7,0.4-2.3,1.1
		c-0.5,0.7-0.8,1.7-0.8,2.9l0,0c0,1.2,0.3,2.2,0.8,2.9c0.6,0.7,1.3,1.1,2.3,1.1l0,0c1,0,1.7-0.4,2.3-1.1
		C401,195.8,401.2,194.9,401.2,193.6z M408,199.1v-10.6c0.4-0.1,1-0.2,1.8-0.4s1.6-0.2,2.6-0.2l0,0c0.7,0,1.3,0.1,1.8,0.3
		c0.5,0.2,0.9,0.5,1.2,0.8l0,0c0.1-0.1,0.3-0.2,0.5-0.3c0.2-0.1,0.5-0.2,0.8-0.4c0.3-0.1,0.7-0.2,1-0.3c0.4-0.1,0.8-0.1,1.2-0.1l0,0
		c0.8,0,1.5,0.1,2.1,0.4c0.5,0.2,1,0.6,1.2,1c0.3,0.4,0.5,1,0.6,1.6c0.1,0.6,0.1,1.3,0.1,2l0,0v6.1h-2v-5.7c0-0.6,0-1.2-0.1-1.7
		c-0.1-0.5-0.2-0.8-0.4-1.1c-0.2-0.3-0.4-0.5-0.7-0.7c-0.3-0.1-0.7-0.2-1.2-0.2l0,0c-0.7,0-1.2,0.1-1.6,0.3
		c-0.4,0.2-0.7,0.3-0.9,0.5l0,0c0.1,0.4,0.2,0.8,0.2,1.2c0.1,0.4,0.1,0.9,0.1,1.4l0,0v6.1h-2v-5.7c0-0.6,0-1.2-0.1-1.7
		c-0.1-0.5-0.2-0.8-0.4-1.1c-0.2-0.3-0.4-0.5-0.7-0.7c-0.3-0.1-0.7-0.2-1.1-0.2l0,0c-0.2,0-0.4,0-0.6,0c-0.2,0-0.4,0-0.6,0.1
		c-0.2,0-0.4,0-0.5,0.1c-0.2,0-0.3,0-0.3,0.1l0,0v9.2H408z M428.1,199.1v-10.6c0.4-0.1,1-0.2,1.8-0.4s1.6-0.2,2.5-0.2l0,0
		c0.7,0,1.3,0.1,1.8,0.3c0.5,0.2,0.9,0.5,1.2,0.8l0,0c0.1-0.1,0.2-0.2,0.5-0.3c0.2-0.1,0.5-0.2,0.8-0.4c0.3-0.1,0.7-0.2,1-0.3
		c0.4-0.1,0.8-0.1,1.2-0.1l0,0c0.8,0,1.5,0.1,2.1,0.4c0.5,0.2,1,0.6,1.2,1s0.5,1,0.6,1.6c0.1,0.6,0.2,1.3,0.2,2l0,0v6.1h-2v-5.7
		c0-0.6,0-1.2-0.1-1.7c-0.1-0.5-0.2-0.8-0.4-1.1c-0.2-0.3-0.4-0.5-0.7-0.7c-0.3-0.1-0.7-0.2-1.2-0.2l0,0c-0.7,0-1.2,0.1-1.6,0.3
		c-0.4,0.2-0.7,0.3-0.9,0.5l0,0c0.1,0.4,0.2,0.8,0.2,1.2c0.1,0.4,0.1,0.9,0.1,1.4l0,0v6.1h-2v-5.7c0-0.6,0-1.2-0.1-1.7
		c-0.1-0.5-0.2-0.8-0.4-1.1c-0.2-0.3-0.4-0.5-0.7-0.7s-0.7-0.2-1.1-0.2l0,0c-0.2,0-0.4,0-0.6,0c-0.2,0-0.4,0-0.6,0.1
		c-0.2,0-0.4,0-0.6,0.1c-0.2,0-0.3,0-0.3,0.1l0,0v9.2H428.1z M447.6,193.7L447.6,193.7c0-1,0.1-1.8,0.4-2.5s0.6-1.3,1.1-1.8
		c0.5-0.5,1-0.8,1.6-1.1c0.6-0.2,1.2-0.4,1.8-0.4l0,0c1.5,0,2.6,0.5,3.4,1.4c0.8,0.9,1.2,2.3,1.2,4.2l0,0c0,0.1,0,0.2,0,0.3
		s0,0.3,0,0.4l0,0h-7.5c0.1,1.1,0.4,2,1,2.6s1.5,0.9,2.7,0.9l0,0c0.7,0,1.3-0.1,1.7-0.2c0.5-0.1,0.8-0.2,1.1-0.3l0,0l0.3,1.6
		c-0.2,0.1-0.7,0.2-1.2,0.4c-0.6,0.1-1.3,0.2-2,0.2l0,0c-1,0-1.8-0.1-2.5-0.4c-0.7-0.3-1.3-0.7-1.7-1.2c-0.4-0.5-0.8-1.1-1-1.8
		C447.7,195.2,447.6,194.5,447.6,193.7z M449.7,192.6h5.4c0-0.9-0.2-1.6-0.7-2.2c-0.5-0.6-1.1-0.9-1.9-0.9l0,0
		c-0.5,0-0.9,0.1-1.2,0.3c-0.3,0.2-0.6,0.4-0.9,0.7c-0.2,0.3-0.4,0.6-0.6,1C449.8,191.8,449.7,192.2,449.7,192.6L449.7,192.6z
		 M466,187.9L466,187.9c0.2,0,0.4,0,0.6,0c0.2,0,0.4,0.1,0.6,0.1c0.2,0,0.4,0.1,0.6,0.1c0.2,0,0.3,0.1,0.4,0.1l0,0l-0.3,1.7
		c-0.2-0.1-0.4-0.1-0.8-0.2c-0.4-0.1-0.8-0.1-1.4-0.1l0,0c-0.4,0-0.7,0-1.1,0.1c-0.4,0.1-0.6,0.1-0.7,0.2l0,0v9.2h-2v-10.5
		c0.5-0.2,1-0.3,1.7-0.5S465.1,187.9,466,187.9z M476.1,199.3L476.1,199.3c-0.9,0-1.7-0.1-2.3-0.4s-1.2-0.7-1.7-1.2
		c-0.5-0.5-0.8-1.1-1-1.8c-0.2-0.7-0.3-1.5-0.3-2.3l0,0c0-0.8,0.1-1.6,0.4-2.3c0.2-0.7,0.6-1.3,1-1.8c0.5-0.5,1-0.9,1.6-1.2
		c0.7-0.3,1.4-0.4,2.2-0.4l0,0c0.5,0,1,0,1.5,0.1c0.5,0.1,1,0.2,1.4,0.4l0,0l-0.4,1.7c-0.3-0.1-0.6-0.2-1-0.3
		c-0.4-0.1-0.8-0.1-1.2-0.1l0,0c-1.1,0-1.9,0.3-2.5,1c-0.6,0.7-0.9,1.7-0.9,3l0,0c0,0.6,0.1,1.1,0.2,1.6c0.1,0.5,0.3,0.9,0.6,1.3
		c0.3,0.4,0.7,0.6,1.1,0.8c0.4,0.2,1,0.3,1.6,0.3l0,0c0.5,0,1,0,1.4-0.1c0.4-0.1,0.8-0.2,1-0.3l0,0l0.3,1.6
		c-0.1,0.1-0.3,0.1-0.5,0.2c-0.2,0.1-0.5,0.1-0.7,0.2c-0.3,0-0.5,0.1-0.9,0.1C476.7,199.3,476.4,199.3,476.1,199.3z M485.1,188.2
		v10.9h-1.9v-10.9H485.1z M484.1,186.2L484.1,186.2c-0.4,0-0.6-0.1-0.9-0.3c-0.2-0.2-0.4-0.5-0.4-0.9l0,0c0-0.4,0.1-0.7,0.4-0.9
		c0.2-0.2,0.5-0.3,0.9-0.3l0,0c0.3,0,0.6,0.1,0.9,0.3c0.2,0.2,0.4,0.5,0.4,0.9l0,0c0,0.4-0.1,0.7-0.4,0.9
		C484.7,186.1,484.4,186.2,484.1,186.2z M494.1,197.7L494.1,197.7c0.5,0,0.9,0,1.2,0c0.4,0,0.6-0.1,0.9-0.1l0,0v-3.3
		c-0.1-0.1-0.4-0.1-0.7-0.2c-0.3,0-0.7-0.1-1.1-0.1l0,0c-0.3,0-0.6,0-0.9,0.1c-0.3,0-0.6,0.1-0.9,0.3c-0.3,0.1-0.5,0.3-0.7,0.5
		c-0.2,0.2-0.3,0.5-0.3,0.9l0,0c0,0.7,0.2,1.2,0.7,1.5C492.7,197.6,493.3,197.7,494.1,197.7z M493.9,187.9L493.9,187.9
		c0.8,0,1.5,0.1,2,0.3c0.5,0.2,1,0.5,1.3,0.9c0.3,0.4,0.6,0.8,0.7,1.3c0.1,0.5,0.2,1.1,0.2,1.7l0,0v6.8c-0.2,0-0.4,0.1-0.7,0.1
		s-0.6,0.1-1,0.1c-0.4,0-0.8,0.1-1.2,0.1s-0.9,0.1-1.3,0.1l0,0c-0.6,0-1.2-0.1-1.7-0.2c-0.5-0.1-1-0.3-1.3-0.6
		c-0.4-0.3-0.7-0.6-0.9-1.1c-0.2-0.4-0.3-1-0.3-1.6l0,0c0-0.6,0.1-1.1,0.4-1.6c0.2-0.4,0.6-0.8,1-1c0.4-0.3,0.9-0.5,1.5-0.6
		c0.6-0.1,1.1-0.2,1.8-0.2l0,0c0.2,0,0.4,0,0.6,0c0.2,0,0.4,0,0.6,0.1c0.2,0,0.4,0.1,0.5,0.1c0.1,0,0.2,0,0.3,0.1l0,0v-0.6
		c0-0.3,0-0.6-0.1-0.9c-0.1-0.3-0.2-0.6-0.4-0.8c-0.2-0.2-0.4-0.4-0.8-0.6c-0.3-0.1-0.7-0.2-1.2-0.2l0,0c-0.6,0-1.2,0-1.7,0.1
		c-0.5,0.1-0.8,0.2-1.1,0.3l0,0l-0.2-1.6c0.3-0.1,0.7-0.2,1.3-0.3C492.6,188,493.3,187.9,493.9,187.9z M506.9,197.7l-0.3,1.6
		c-1.2,0-2.1-0.3-2.6-0.8c-0.5-0.5-0.8-1.3-0.8-2.3l0,0v-13.1l2-0.3v13.1c0,0.3,0,0.6,0.1,0.8c0.1,0.2,0.1,0.4,0.3,0.5
		c0.1,0.1,0.3,0.2,0.5,0.3C506.4,197.6,506.6,197.6,506.9,197.7L506.9,197.7z"/>
</g>
<g>
	<path class="st1" d="M204.8,157.7H197l-15-45h6.3l12.6,38.4l12.6-38.4h6.3L204.8,157.7z M243.4,157.7H226v-45h16.7c4,0,7,1,9,2.9
		c2,2,3,4.8,3,8.7l0,0c0,1.9-0.3,3.5-0.8,4.8c-0.6,1.4-1.3,2.5-2.3,3.4c-1,0.9-2,1.5-3.2,1.8l0,0c0.9,0.2,1.7,0.6,2.6,1.1
		c0.9,0.5,1.8,1.2,2.6,2c0.8,0.9,1.4,1.9,1.9,3.2c0.5,1.3,0.7,2.8,0.7,4.6l0,0c0,3.1-0.5,5.6-1.6,7.4c-1,1.8-2.5,3.1-4.4,3.9
		C248.4,157.3,246.1,157.7,243.4,157.7L243.4,157.7z M232.2,137v15.2h11c1.5,0,2.7-0.2,3.8-0.7c1.1-0.5,1.9-1.3,2.5-2.4
		c0.6-1.1,0.9-2.7,0.9-4.8l0,0c0-1.5-0.3-2.8-1-3.9c-0.6-1.1-1.5-1.9-2.6-2.5c-1.1-0.6-2.3-0.9-3.6-0.9l0,0H232.2z M232.2,118.2v14
		h10.7c1.7,0,3.2-0.6,4.2-1.9c1.1-1.3,1.6-3,1.7-5l0,0c0.1-2.6-0.5-4.5-1.6-5.5c-1.2-1-2.7-1.6-4.5-1.5l0,0H232.2z M289.5,157.9
		L289.5,157.9c-1,0-2.1-0.1-3.2-0.3c-1.1-0.2-2.2-0.6-3.3-1.2c-1-0.6-1.9-1.5-2.5-2.7c-0.6-1.2-1-2.9-1-4.9l0,0v-26.7
		c0-1.8,0.3-3.3,0.8-4.5c0.5-1.2,1.3-2.2,2.2-2.9c0.9-0.7,1.9-1.2,3-1.5c1.1-0.3,2.2-0.5,3.3-0.5l0,0c2.6,0,5.1,0.1,7.3,0.2
		c2.2,0.1,4.3,0.1,6.2,0.2c1.9,0.1,3.7,0.2,5.5,0.2l0,0v5.1h-17.3c-1.5,0-2.7,0.4-3.5,1.2s-1.3,2-1.3,3.7l0,0v9.3l19.4,0.4v4.8
		l-19.4,0.4v9.2c0,1.4,0.2,2.4,0.7,3.1c0.5,0.7,1.1,1.2,1.8,1.4c0.8,0.2,1.6,0.4,2.4,0.4l0,0h17.2v5.1c-1.9,0.1-3.8,0.2-5.9,0.3
		c-2.1,0.1-4.2,0.2-6.2,0.2C293.6,157.9,291.5,157.9,289.5,157.9z M296.2,109.4h-3.6l5.9-8.4h5.1L296.2,109.4z M328.7,157.7h-4.3
		c-2,0-3.7-0.3-5-1c-1.4-0.7-2.4-1.8-3.1-3.3c-0.7-1.5-1-3.6-1-6.2l0,0v-36.1h6.1v35.3c0,1.7,0.2,3,0.5,3.9c0.3,0.9,0.8,1.6,1.5,1.9
		c0.6,0.4,1.4,0.6,2.2,0.7l0,0l3.1,0.4V157.7z M346.5,158L346.5,158c-3.5,0-6.2-0.5-8.3-1.5c-2.1-1-3.5-2.7-4.4-5.2
		c-0.9-2.4-1.3-5.8-1.3-10l0,0c0-4.3,0.4-7.7,1.3-10.2c0.9-2.4,2.3-4.1,4.4-5.1c2-1,4.8-1.5,8.2-1.5l0,0c3,0,5.4,0.3,7.3,1
		c1.9,0.6,3.2,1.7,4.1,3.3c0.9,1.6,1.3,3.8,1.3,6.7l0,0c0,2-0.4,3.6-1.2,4.8c-0.8,1.2-1.9,2-3.4,2.6c-1.4,0.5-3.2,0.8-5.2,0.8l0,0
		h-10.8c0,2.4,0.3,4.2,0.8,5.6c0.5,1.4,1.4,2.4,2.8,3c1.3,0.6,3.3,0.9,5.8,0.9l0,0h10.2v3.7c-1.7,0.2-3.5,0.5-5.4,0.7
		C351,157.9,348.9,158,346.5,158z M338.6,139.9L338.6,139.9h10.3c1.6,0,2.8-0.3,3.6-0.9c0.8-0.6,1.2-1.7,1.2-3.4l0,0
		c0-1.6-0.2-2.9-0.7-3.8c-0.5-0.9-1.2-1.6-2.3-2c-1.1-0.4-2.5-0.6-4.2-0.6l0,0c-2,0-3.6,0.3-4.7,0.9c-1.2,0.6-2,1.7-2.4,3.2
		C338.8,134.8,338.6,137,338.6,139.9z M378.7,158L378.7,158c-1.9,0-3.7-0.3-5.3-0.8c-1.6-0.5-3-1.4-4.2-2.6s-2.1-2.9-2.8-5.1
		c-0.6-2.2-1-4.9-1-8.2l0,0c0-3.4,0.3-6.2,0.9-8.3c0.6-2.2,1.5-3.9,2.7-5.1c1.2-1.2,2.6-2.1,4.2-2.6c1.7-0.5,3.5-0.7,5.6-0.7l0,0
		c1.7,0,3.5,0.1,5.4,0.2c1.9,0.2,3.7,0.4,5.5,0.8l0,0v3.6h-9.2c-2,0-3.7,0.3-5,0.9c-1.3,0.6-2.3,1.8-3,3.6c-0.6,1.8-1,4.3-1,7.7l0,0
		c0,3.2,0.3,5.7,1,7.4c0.7,1.7,1.7,2.9,3,3.5c1.3,0.6,3,0.9,5,0.9l0,0h9.6v3.5c-0.9,0.2-2,0.5-3.3,0.6c-1.3,0.2-2.6,0.3-4,0.4
		C381.6,158,380.1,158,378.7,158z M412.7,157.7h-4.9c-2.2,0-4-0.4-5.5-1.1c-1.4-0.7-2.5-1.9-3.2-3.4c-0.7-1.6-1-3.7-1-6.4l0,0
		l0.2-16.8h-5.2v-4l5.3-1l0.9-9.2h4.8v9.2h8.9v5h-8.9v16.7c0,1.3,0.1,2.3,0.4,3.1s0.6,1.4,1,1.8c0.4,0.4,0.9,0.7,1.5,0.9
		c0.5,0.2,1,0.3,1.5,0.3l0,0l4,0.4V157.7z M425.4,157.7h-6.1V125h4.7l1.4,5.5c1.4-1.7,2.9-3.1,4.6-4.2c1.7-1.1,3.7-1.7,6-1.7l0,0
		c0.5,0,1,0,1.5,0.1c0.5,0.1,1,0.2,1.4,0.3l0,0v6.3c-0.6-0.1-1.2-0.2-1.8-0.2c-0.6-0.1-1.2-0.1-1.9-0.1l0,0c-1.4,0-2.6,0.2-3.7,0.5
		c-1.1,0.3-2.1,0.8-3.1,1.5c-1,0.7-2,1.5-3,2.5l0,0V157.7z M450,119.6h-4.5c-0.7,0-1.1-0.3-1.1-1l0,0v-5.1c0-0.7,0.4-1.1,1.1-1.1
		l0,0h4.5c0.3,0,0.6,0.1,0.7,0.3c0.2,0.2,0.2,0.5,0.2,0.8l0,0v5.1C451,119.2,450.7,119.6,450,119.6L450,119.6z M450.8,157.7h-6.1
		V125h6.1V157.7z M486.2,172.1H480v-17.7c-1.4,1-3,1.9-4.8,2.6c-1.8,0.7-3.6,1-5.3,1l0,0c-2.9,0-5.2-0.6-6.9-1.8
		c-1.7-1.2-3-3.1-3.7-5.6c-0.7-2.5-1.1-5.6-1.1-9.3l0,0c0-3.9,0.4-7.1,1.3-9.5c0.9-2.5,2.2-4.3,4-5.4c1.8-1.2,4.1-1.7,6.9-1.7l0,0
		c2,0,3.9,0.1,5.8,0.2c1.9,0.1,3.7,0.2,5.4,0.4c1.7,0.1,3.2,0.3,4.4,0.5l0,0V172.1z M471.5,153L471.5,153c1.5,0,2.9-0.2,4.4-0.7
		c1.5-0.4,2.8-1,4.1-1.8l0,0v-21.3h-7.9c-1.9,0-3.5,0.5-4.6,1.4c-1.1,1-1.9,2.3-2.4,4.1c-0.5,1.7-0.7,3.9-0.7,6.3l0,0
		c0,2.9,0.2,5.3,0.7,7c0.5,1.7,1.2,3,2.3,3.8C468.4,152.7,469.8,153,471.5,153z M504.1,158L504.1,158c-3.1,0-5.4-0.8-7.1-2.5
		c-1.7-1.6-2.5-4.2-2.5-7.5l0,0v-23h6.1v21.3c0,2.4,0.6,4.1,1.7,4.9c1.1,0.9,2.7,1.3,4.7,1.3l0,0c1.6,0,3.2-0.3,4.7-0.8
		c1.5-0.5,2.9-1.2,4.4-2.1l0,0V125h6.1v32.6h-4.9l-1.2-3.5c-1.6,1-3.4,1.9-5.5,2.7C508.5,157.7,506.3,158,504.1,158z M543.4,158
		L543.4,158c-3.5,0-6.2-0.5-8.3-1.5c-2.1-1-3.5-2.7-4.4-5.2c-0.9-2.4-1.3-5.8-1.3-10l0,0c0-4.3,0.4-7.7,1.3-10.2
		c0.9-2.4,2.3-4.1,4.4-5.1c2-1,4.8-1.5,8.2-1.5l0,0c3,0,5.4,0.3,7.3,1c1.9,0.6,3.2,1.7,4.1,3.3c0.9,1.6,1.3,3.8,1.3,6.7l0,0
		c0,2-0.4,3.6-1.2,4.8c-0.8,1.2-1.9,2-3.3,2.6c-1.4,0.5-3.2,0.8-5.2,0.8l0,0h-10.8c0,2.4,0.3,4.2,0.8,5.6c0.5,1.4,1.4,2.4,2.7,3
		c1.3,0.6,3.3,0.9,5.8,0.9l0,0h10.2v3.7c-1.8,0.2-3.5,0.5-5.4,0.7C547.9,157.9,545.8,158,543.4,158z M535.4,139.9L535.4,139.9h10.3
		c1.6,0,2.8-0.3,3.6-0.9c0.8-0.6,1.2-1.7,1.2-3.4l0,0c0-1.6-0.2-2.9-0.7-3.8c-0.5-0.9-1.2-1.6-2.3-2c-1.1-0.4-2.5-0.6-4.2-0.6l0,0
		c-2,0-3.6,0.3-4.7,0.9c-1.2,0.6-2,1.7-2.4,3.2C535.7,134.8,535.4,137,535.4,139.9z"/>
</g>
</svg>
