<svg xmlns="http://www.w3.org/2000/svg" viewBox="-25.4949951171875 151.0078125 625.9900207519531 272.984375"> <svg xmlns="http://www.w3.org/2000/svg" xmlns:xlink="http://www.w3.org/1999/xlink" version="1.1" id="Layer_1" x="44.5050048828125" y="221.0078125" viewBox="151.99993896484375 130.30001831054688 696.5260009765625 738.4000244140625" xml:space="preserve" height="132.984375" width="125.57760534927206" preserveAspectRatio="xMinYMin" enable-background="new 0 0 1000 1000" style="overflow: visible;"><path class="st0" d="M766.2,696.1c-3.2-4.3-7.3-4.7-11.8-2c-1.6,1-3.1,2.2-4.6,3.3c-9.5,6.9-10,9.4-3.2,18.8   c9,12.4,17.9,24.7,26.9,37.1c7.9,10.8,15.7,21.7,23.6,32.5c10.5,14.5,11.5,14.6,25.7,3.5c4.6-3.6,5.5-7.6,2.2-12.2   C805.5,750.1,785.9,723.1,766.2,696.1z" style="fill: #ED1B34;"></path><path class="st0" d="M815.9,701.8c3.9-2.9,4.7-7,2.2-11.2c-2.6-4.3-7.2-5.5-11-3c-9.3,6-18.1,12.9-27.3,19.6   c3.5,4.8,6.4,8.9,9.9,13.7C798.9,714.2,807.5,708.1,815.9,701.8z" style="fill: #ED1B34;"></path><path class="st0" d="M847.1,730.5c-2.6-4.3-7.2-5.5-11-3c-9.3,6.1-18.2,12.9-27.4,19.6c3.5,4.8,6.4,8.9,9.9,13.7   c9.2-6.7,17.8-12.7,26.2-19.1C848.8,738.8,849.6,734.7,847.1,730.5z" style="fill: #ED1B34;"></path><path class="st0" d="M746.5,721.9c-2.3-3.2-4.4-2.6-7-0.6c-6,4.5-12.3,8.7-18,13.5c-14.5,12.1-19,27.6-14.8,45.3   C653.5,815.4,589.7,836,521.3,836c-185.5,0-336.4-150.9-336.4-336.4s150.9-336.4,336.4-336.4c58.8,0,114,15.1,162.2,41.7   L561.9,355.7h67.8L518,519l206.3-195.8h-65.9l71.7-87.2c0,0,0.1,0.1,0.1,0.1l20.9-25.5c-26.2-20.9-55.1-38.1-86.2-51.3   c-45.5-19.3-93.9-29-143.7-29s-98.2,9.8-143.7,29c-44,18.6-83.5,45.2-117.4,79.1s-60.5,73.4-79.1,117.4   c-19.3,45.5-29,93.9-29,143.7c0,49.8,9.8,98.2,29,143.7c18.6,44,45.2,83.5,79.1,117.4c33.9,33.9,73.4,60.5,117.4,79.1   c45.5,19.3,93.9,29,143.7,29s98.2-9.8,143.7-29c21.3-9,41.5-19.9,60.6-32.6c0,0,0,0,0,0c13.2,7.6,27,10.8,40.9,4.6   c9.6-4.3,18.2-10.8,27.1-16.7c1-0.7,3.4-3.3,1.6-5.8C778.9,766.9,762.7,744.4,746.5,721.9z M755.5,781.8   c-7.2,1.6-24.4,4.3-24.4,4.3l2.7,3.8l-12.9-3.3l4.9-8l2.4,3.3l15-4.8c0,0-5.6-7.7-8.2-11.3c5.1-1.9,22.9-7,22.9-7l6.1,8.2   c0,0-11,2.4-16.9,3.6C750.1,774.3,752.4,777.5,755.5,781.8z" style="fill: #ED1B34;"></path><path class="st1" d="M582,684.2H460.8c-6.6,0-12-5.4-12-12v-8.8c0-6.6,5.4-12,12-12H582c6.6,0,12,5.4,12,12v8.8   C594,678.8,588.6,684.2,582,684.2z" style="fill: #FFF;"></path><path class="st1" d="M576,728.8H466.9c-6.6,0-12-5.4-12-12v-8.3c0-6.6,5.4-12,12-12H576c6.6,0,12,5.4,12,12v8.3   C588,723.4,582.6,728.8,576,728.8z" style="fill: #FFF;"></path><path class="st1" d="M527.3,768.8H515c-6.6,0-12-5.4-12-12v-5.6c0-6.6,5.4-12,12-12h12.3c6.6,0,12,5.4,12,12v5.6   C539.3,763.4,533.9,768.8,527.3,768.8z" style="fill: #FFF;"></path><path class="st1" d="M683.5,377.3l-36.8,35.5c0,25.1-6.8,48.7-19.4,71.6c-11.7,21.2-24,41.8-38.1,61.5c-12.3,17.2-21,36.1-25,57.1   c-0.2,1.3-2.5,3.2-3.8,3.2c-13.1,0.1-26.2,0.1-39.3,0.1c-13.1,0-26.2,0-39.3-0.1c-1.3,0-3.5-1.9-3.8-3.2c-4-21-12.6-39.9-25-57.1   c-14.1-19.7-26.4-40.3-38.1-61.5c-15.6-28.2-22.2-57.6-18.3-89.4c3.9-31.1,17-57.9,43-76c26-18.2,53.3-27.2,81.4-27.3   c21.2,0.1,42,5.3,62.1,15.6l25.3-32.4c-16.5-10.2-34.8-17.6-54.5-21.4c-11.1-2.2-22.1-3.2-33-3.2c-10.9,0-21.9,1-33,3.2   c-75.1,14.7-131.7,81.4-134.1,157.9c-1.1,35.3,8.1,67.8,27.2,97.3c9.9,15.2,20.8,29.8,31.7,44.2c11.1,14.7,21.5,29.7,28.6,46.7   c1.1,2.5-1.9,39.7,5.2,39.7c24.8-0.1,49.5-0.1,74.3-0.1c24.8,0,49.5,0,74.3,0.1c7.1,0,4.2-37.1,5.2-39.7   c7.1-17.1,17.5-32.1,28.6-46.7c11-14.5,21.9-29,31.7-44.2c19.2-29.5,28.3-62,27.2-97.3C687.9,399.7,686.2,388.3,683.5,377.3z" style="fill: #FFF;"></path></svg> <svg x="200.78" y="333.662" viewBox="1.809999942779541 3.130000114440918 288.6600036621094 20.329998016357422" height="20.329998016357422" width="288.6600036621094" style="overflow: visible;"><g fill="#ED1B34" fill-opacity="1" style=""><path d="M8.93 13.48L8.93 13.48Q9.26 13.90 9.78 14.58Q10.29 15.27 10.84 16.10Q11.38 16.93 11.92 17.83Q12.45 18.73 12.83 19.57L12.83 19.57L10.61 19.57Q10.19 18.77 9.69 17.96Q9.20 17.14 8.69 16.39Q8.19 15.65 7.70 14.99Q7.20 14.34 6.80 13.86L6.80 13.86Q6.53 13.88 6.25 13.88Q5.96 13.88 5.67 13.88L5.67 13.88L3.84 13.88L3.84 19.57L1.81 19.57L1.81 5.23Q2.67 5.02 3.73 4.95Q4.79 4.87 5.67 4.87L5.67 4.87Q8.74 4.87 10.34 6.03Q11.95 7.18 11.95 9.47L11.95 9.47Q11.95 10.92 11.18 11.95Q10.42 12.98 8.93 13.48ZM5.84 6.66L5.84 6.66Q4.54 6.66 3.84 6.72L3.84 6.72L3.84 12.20L5.29 12.20Q6.34 12.20 7.18 12.10Q8.02 11.99 8.60 11.70Q9.18 11.40 9.49 10.87Q9.81 10.33 9.81 9.45L9.81 9.45Q9.81 8.63 9.49 8.09Q9.18 7.54 8.64 7.22Q8.11 6.91 7.38 6.78Q6.66 6.66 5.84 6.66ZM16.28 14.13L16.28 14.13Q16.28 12.68 16.70 11.60Q17.12 10.52 17.81 9.81Q18.51 9.09 19.41 8.74Q20.31 8.38 21.26 8.38L21.26 8.38Q23.46 8.38 24.64 9.75Q25.81 11.13 25.81 13.94L25.81 13.94Q25.81 14.07 25.81 14.27Q25.81 14.47 25.79 14.64L25.79 14.64L18.32 14.64Q18.44 16.34 19.30 17.22Q20.17 18.10 21.99 18.10L21.99 18.10Q23.02 18.10 23.72 17.92Q24.43 17.75 24.79 17.58L24.79 17.58L25.06 19.22Q24.70 19.40 23.81 19.61Q22.92 19.82 21.78 19.82L21.78 19.82Q20.35 19.82 19.31 19.39Q18.28 18.96 17.60 18.21Q16.93 17.45 16.61 16.41Q16.28 15.37 16.28 14.13ZM18.36 13.06L23.78 13.06Q23.80 11.74 23.12 10.89Q22.43 10.04 21.24 10.04L21.24 10.04Q20.56 10.04 20.05 10.30Q19.54 10.56 19.18 10.98Q18.82 11.40 18.62 11.95Q18.42 12.50 18.36 13.06L18.36 13.06ZM33.17 18.17L33.17 18.17Q34.37 18.17 34.94 17.85Q35.52 17.54 35.52 16.84L35.52 16.84Q35.52 16.13 34.95 15.71Q34.39 15.29 33.09 14.76L33.09 14.76Q32.45 14.51 31.88 14.25Q31.30 13.99 30.88 13.63Q30.46 13.27 30.21 12.77Q29.96 12.26 29.96 11.53L29.96 11.53Q29.96 10.08 31.03 9.23Q32.10 8.38 33.95 8.38L33.95 8.38Q34.41 8.38 34.87 8.43Q35.33 8.48 35.73 8.56Q36.13 8.63 36.43 8.72Q36.74 8.80 36.91 8.86L36.91 8.86L36.55 10.54Q36.23 10.37 35.56 10.20Q34.89 10.02 33.95 10.02L33.95 10.02Q33.13 10.02 32.52 10.34Q31.91 10.67 31.91 11.36L31.91 11.36Q31.91 11.72 32.05 11.99Q32.18 12.26 32.47 12.48Q32.75 12.71 33.17 12.89Q33.59 13.08 34.18 13.29L34.18 13.29Q34.95 13.59 35.56 13.87Q36.17 14.15 36.60 14.53Q37.03 14.91 37.26 15.45Q37.50 15.98 37.50 16.76L37.50 16.76Q37.50 18.27 36.37 19.05Q35.25 19.82 33.17 19.82L33.17 19.82Q31.72 19.82 30.90 19.58Q30.08 19.34 29.79 19.22L29.79 19.22L30.14 17.54Q30.48 17.66 31.22 17.91Q31.95 18.17 33.17 18.17ZM43.95 8.65L43.95 19.57L41.99 19.57L41.99 8.65L43.95 8.65ZM42.96 6.68L42.96 6.68Q42.44 6.68 42.07 6.33Q41.70 5.99 41.70 5.40L41.70 5.40Q41.70 4.81 42.07 4.46Q42.44 4.12 42.96 4.12L42.96 4.12Q43.48 4.12 43.85 4.46Q44.22 4.81 44.22 5.40L44.22 5.40Q44.22 5.99 43.85 6.33Q43.48 6.68 42.96 6.68ZM56.36 17.87L56.36 10.96Q56.01 10.67 55.33 10.40Q54.66 10.12 53.86 10.12L53.86 10.12Q53.02 10.12 52.43 10.43Q51.83 10.73 51.45 11.27Q51.07 11.80 50.90 12.54Q50.73 13.27 50.73 14.11L50.73 14.11Q50.73 16.02 51.68 17.06Q52.63 18.10 54.20 18.10L54.20 18.10Q55.00 18.10 55.53 18.03Q56.07 17.96 56.36 17.87L56.36 17.87ZM56.36 9.14L56.36 3.61L58.32 3.28L58.32 19.26Q57.64 19.45 56.59 19.64Q55.54 19.82 54.18 19.82L54.18 19.82Q52.92 19.82 51.91 19.43Q50.90 19.03 50.19 18.29Q49.48 17.56 49.09 16.50Q48.70 15.44 48.70 14.11L48.70 14.11Q48.70 12.85 49.02 11.80Q49.35 10.75 49.98 10.00Q50.61 9.24 51.52 8.82Q52.44 8.40 53.61 8.40L53.61 8.40Q54.56 8.40 55.28 8.65Q56.01 8.90 56.36 9.14L56.36 9.14ZM63.07 14.13L63.07 14.13Q63.07 12.68 63.49 11.60Q63.91 10.52 64.60 9.81Q65.29 9.09 66.20 8.74Q67.10 8.38 68.04 8.38L68.04 8.38Q70.25 8.38 71.42 9.75Q72.60 11.13 72.60 13.94L72.60 13.94Q72.60 14.07 72.60 14.27Q72.60 14.47 72.58 14.64L72.58 14.64L65.10 14.64Q65.23 16.34 66.09 17.22Q66.95 18.10 68.78 18.10L68.78 18.10Q69.81 18.10 70.51 17.92Q71.22 17.75 71.57 17.58L71.57 17.58L71.84 19.22Q71.49 19.40 70.60 19.61Q69.70 19.82 68.57 19.82L68.57 19.82Q67.14 19.82 66.10 19.39Q65.06 18.96 64.39 18.21Q63.72 17.45 63.39 16.41Q63.07 15.37 63.07 14.13ZM65.15 13.06L70.56 13.06Q70.59 11.74 69.90 10.89Q69.22 10.04 68.02 10.04L68.02 10.04Q67.35 10.04 66.84 10.30Q66.32 10.56 65.97 10.98Q65.61 11.40 65.41 11.95Q65.21 12.50 65.15 13.06L65.15 13.06ZM77.42 19.57L77.42 8.97Q78.09 8.80 79.20 8.61Q80.31 8.42 81.76 8.42L81.76 8.42Q83.06 8.42 83.92 8.79Q84.79 9.16 85.30 9.82Q85.81 10.48 86.03 11.40Q86.23 12.33 86.23 13.44L86.23 13.44L86.23 19.57L84.28 19.57L84.28 13.86Q84.28 12.85 84.15 12.14Q84.01 11.42 83.69 10.98Q83.38 10.54 82.85 10.34Q82.33 10.14 81.55 10.14L81.55 10.14Q81.24 10.14 80.90 10.16Q80.56 10.19 80.26 10.22Q79.96 10.25 79.71 10.29Q79.47 10.33 79.37 10.35L79.37 10.35L79.37 19.57L77.42 19.57ZM93.30 5.27L93.30 8.65L97.43 8.65L97.43 10.29L93.30 10.29L93.30 15.33Q93.30 16.15 93.42 16.68Q93.55 17.22 93.80 17.52Q94.05 17.83 94.43 17.96Q94.81 18.08 95.31 18.08L95.31 18.08Q96.19 18.08 96.73 17.88Q97.27 17.68 97.48 17.60L97.48 17.60L97.85 19.22Q97.56 19.36 96.82 19.58Q96.09 19.80 95.14 19.80L95.14 19.80Q94.03 19.80 93.31 19.52Q92.58 19.24 92.14 18.67Q91.70 18.10 91.52 17.27Q91.34 16.44 91.34 15.35L91.34 15.35L91.34 5.61L93.30 5.27ZM103.86 8.65L103.86 19.57L101.91 19.57L101.91 8.65L103.86 8.65ZM102.88 6.68L102.88 6.68Q102.35 6.68 101.98 6.33Q101.62 5.99 101.62 5.40L101.62 5.40Q101.62 4.81 101.98 4.46Q102.35 4.12 102.88 4.12L102.88 4.12Q103.40 4.12 103.77 4.46Q104.14 4.81 104.14 5.40L104.14 5.40Q104.14 5.99 103.77 6.33Q103.40 6.68 102.88 6.68ZM108.61 14.13L108.61 14.13Q108.61 12.68 109.03 11.60Q109.45 10.52 110.15 9.81Q110.84 9.09 111.74 8.74Q112.65 8.38 113.59 8.38L113.59 8.38Q115.80 8.38 116.97 9.75Q118.15 11.13 118.15 13.94L118.15 13.94Q118.15 14.07 118.15 14.27Q118.15 14.47 118.13 14.64L118.13 14.64L110.65 14.64Q110.78 16.34 111.64 17.22Q112.50 18.10 114.33 18.10L114.33 18.10Q115.36 18.10 116.06 17.92Q116.76 17.75 117.12 17.58L117.12 17.58L117.39 19.22Q117.04 19.40 116.14 19.61Q115.25 19.82 114.12 19.82L114.12 19.82Q112.69 19.82 111.65 19.39Q110.61 18.96 109.94 18.21Q109.27 17.45 108.94 16.41Q108.61 15.37 108.61 14.13ZM110.69 13.06L116.11 13.06Q116.13 11.74 115.45 10.89Q114.77 10.04 113.57 10.04L113.57 10.04Q112.90 10.04 112.38 10.30Q111.87 10.56 111.51 10.98Q111.16 11.40 110.96 11.95Q110.76 12.50 110.69 13.06L110.69 13.06ZM126.51 18.14L126.24 19.78Q124.43 19.74 123.68 19.01Q122.92 18.27 122.92 16.72L122.92 16.72L122.92 3.61L124.87 3.28L124.87 16.40Q124.87 16.88 124.96 17.20Q125.04 17.51 125.23 17.70Q125.42 17.89 125.73 17.99Q126.05 18.08 126.51 18.14L126.51 18.14ZM144.44 3.13L137.36 23.46L135.36 23.46L142.48 3.13L144.44 3.13ZM160.85 19.89L160.85 19.89Q159.31 19.89 158.05 19.38Q156.79 18.88 155.89 17.91Q154.99 16.95 154.49 15.53Q154 14.11 154 12.29L154 12.29Q154 10.46 154.56 9.04Q155.11 7.62 156.06 6.66Q157.00 5.69 158.26 5.19Q159.52 4.68 160.95 4.68L160.95 4.68Q161.85 4.68 162.58 4.81Q163.30 4.94 163.84 5.10Q164.37 5.27 164.71 5.44Q165.05 5.61 165.17 5.69L165.17 5.69L164.58 7.37Q164.40 7.25 164.04 7.10Q163.68 6.95 163.23 6.80Q162.78 6.66 162.24 6.56Q161.71 6.47 161.16 6.47L161.16 6.47Q160.01 6.47 159.08 6.87Q158.16 7.27 157.51 8.02Q156.86 8.78 156.51 9.86Q156.16 10.94 156.16 12.29L156.16 12.29Q156.16 13.59 156.47 14.66Q156.77 15.73 157.38 16.50Q157.99 17.26 158.90 17.68Q159.82 18.10 161.04 18.10L161.04 18.10Q162.44 18.10 163.37 17.81Q164.29 17.51 164.75 17.28L164.75 17.28L165.28 18.96Q165.13 19.07 164.75 19.23Q164.37 19.38 163.81 19.53Q163.24 19.68 162.48 19.78Q161.73 19.89 160.85 19.89ZM178.81 14.11L178.81 14.11Q178.81 15.41 178.43 16.46Q178.05 17.51 177.37 18.27Q176.69 19.03 175.74 19.44Q174.80 19.85 173.68 19.85L173.68 19.85Q172.57 19.85 171.62 19.44Q170.68 19.03 170.00 18.27Q169.31 17.51 168.94 16.46Q168.56 15.41 168.56 14.11L168.56 14.11Q168.56 12.83 168.94 11.77Q169.31 10.71 170.00 9.95Q170.68 9.20 171.62 8.79Q172.57 8.38 173.68 8.38L173.68 8.38Q174.80 8.38 175.74 8.79Q176.69 9.20 177.37 9.95Q178.05 10.71 178.43 11.77Q178.81 12.83 178.81 14.11ZM176.77 14.11L176.77 14.11Q176.77 12.26 175.94 11.18Q175.11 10.10 173.68 10.10L173.68 10.10Q172.25 10.10 171.42 11.18Q170.60 12.26 170.60 14.11L170.60 14.11Q170.60 15.96 171.42 17.04Q172.25 18.12 173.68 18.12L173.68 18.12Q175.11 18.12 175.94 17.04Q176.77 15.96 176.77 14.11ZM183.56 19.57L183.56 8.97Q184.23 8.80 185.33 8.61Q186.43 8.42 187.88 8.42L187.88 8.42Q188.93 8.42 189.65 8.70Q190.36 8.99 190.84 9.53L190.84 9.53Q190.99 9.43 191.31 9.24Q191.62 9.05 192.08 8.87Q192.55 8.69 193.11 8.56Q193.68 8.42 194.33 8.42L194.33 8.42Q195.59 8.42 196.39 8.79Q197.19 9.16 197.64 9.83Q198.09 10.50 198.25 11.42Q198.40 12.35 198.40 13.44L198.40 13.44L198.40 19.57L196.45 19.57L196.45 13.86Q196.45 12.89 196.36 12.20Q196.26 11.51 196.00 11.05Q195.74 10.58 195.29 10.36Q194.83 10.14 194.12 10.14L194.12 10.14Q193.13 10.14 192.49 10.41Q191.85 10.67 191.62 10.88L191.62 10.88Q191.79 11.42 191.87 12.08Q191.96 12.73 191.96 13.44L191.96 13.44L191.96 19.57L190.00 19.57L190.00 13.86Q190.00 12.89 189.90 12.20Q189.79 11.51 189.53 11.05Q189.27 10.58 188.82 10.36Q188.37 10.14 187.67 10.14L187.67 10.14Q187.38 10.14 187.04 10.16Q186.71 10.19 186.40 10.22Q186.10 10.25 185.85 10.29Q185.59 10.33 185.51 10.35L185.51 10.35L185.51 19.57L183.56 19.57ZM203.64 19.57L203.64 8.97Q204.31 8.80 205.41 8.61Q206.51 8.42 207.96 8.42L207.96 8.42Q209.01 8.42 209.73 8.70Q210.44 8.99 210.93 9.53L210.93 9.53Q211.07 9.43 211.39 9.24Q211.70 9.05 212.16 8.87Q212.63 8.69 213.19 8.56Q213.76 8.42 214.41 8.42L214.41 8.42Q215.67 8.42 216.47 8.79Q217.27 9.16 217.72 9.83Q218.17 10.50 218.33 11.42Q218.49 12.35 218.49 13.44L218.49 13.44L218.49 19.57L216.53 19.57L216.53 13.86Q216.53 12.89 216.44 12.20Q216.34 11.51 216.08 11.05Q215.82 10.58 215.37 10.36Q214.91 10.14 214.20 10.14L214.20 10.14Q213.21 10.14 212.57 10.41Q211.93 10.67 211.70 10.88L211.70 10.88Q211.87 11.42 211.95 12.08Q212.04 12.73 212.04 13.44L212.04 13.44L212.04 19.57L210.09 19.57L210.09 13.86Q210.09 12.89 209.98 12.20Q209.88 11.51 209.61 11.05Q209.35 10.58 208.90 10.36Q208.45 10.14 207.75 10.14L207.75 10.14Q207.46 10.14 207.12 10.16Q206.79 10.19 206.48 10.22Q206.18 10.25 205.93 10.29Q205.68 10.33 205.59 10.35L205.59 10.35L205.59 19.57L203.64 19.57ZM223.11 14.13L223.11 14.13Q223.11 12.68 223.53 11.60Q223.95 10.52 224.64 9.81Q225.34 9.09 226.24 8.74Q227.14 8.38 228.09 8.38L228.09 8.38Q230.29 8.38 231.47 9.75Q232.64 11.13 232.64 13.94L232.64 13.94Q232.64 14.07 232.64 14.27Q232.64 14.47 232.62 14.64L232.62 14.64L225.15 14.64Q225.27 16.34 226.13 17.22Q226.99 18.10 228.82 18.10L228.82 18.10Q229.85 18.10 230.55 17.92Q231.26 17.75 231.61 17.58L231.61 17.58L231.89 19.22Q231.53 19.40 230.64 19.61Q229.75 19.82 228.61 19.82L228.61 19.82Q227.18 19.82 226.14 19.39Q225.10 18.96 224.43 18.21Q223.76 17.45 223.44 16.41Q223.11 15.37 223.11 14.13ZM225.19 13.06L230.61 13.06Q230.63 11.74 229.95 10.89Q229.26 10.04 228.07 10.04L228.07 10.04Q227.39 10.04 226.88 10.30Q226.36 10.56 226.01 10.98Q225.65 11.40 225.45 11.95Q225.25 12.50 225.19 13.06L225.19 13.06ZM241.49 8.42L241.49 8.42Q241.74 8.42 242.07 8.45Q242.39 8.48 242.71 8.54Q243.02 8.59 243.29 8.64Q243.55 8.69 243.67 8.74L243.67 8.74L243.34 10.44Q243.11 10.35 242.57 10.24Q242.04 10.12 241.20 10.12L241.20 10.12Q240.65 10.12 240.11 10.24Q239.58 10.35 239.41 10.40L239.41 10.40L239.41 19.57L237.46 19.57L237.46 9.11Q238.15 8.86 239.18 8.64Q240.21 8.42 241.49 8.42ZM249.52 8.65L249.52 19.57L247.56 19.57L247.56 8.65L249.52 8.65ZM248.53 6.68L248.53 6.68Q248.00 6.68 247.64 6.33Q247.27 5.99 247.27 5.40L247.27 5.40Q247.27 4.81 247.64 4.46Q248.00 4.12 248.53 4.12L248.53 4.12Q249.05 4.12 249.42 4.46Q249.79 4.81 249.79 5.40L249.79 5.40Q249.79 5.99 249.42 6.33Q249.05 6.68 248.53 6.68ZM259.62 19.82L259.62 19.82Q258.30 19.82 257.30 19.40Q256.30 18.98 255.62 18.23Q254.94 17.47 254.60 16.43Q254.27 15.39 254.27 14.13L254.27 14.13Q254.27 12.87 254.64 11.82Q255.00 10.77 255.67 10.01Q256.35 9.24 257.32 8.81Q258.30 8.38 259.50 8.38L259.50 8.38Q260.23 8.38 260.97 8.51Q261.70 8.63 262.37 8.90L262.37 8.90L261.93 10.56Q261.49 10.35 260.91 10.23Q260.34 10.10 259.69 10.10L259.69 10.10Q258.05 10.10 257.18 11.13Q256.30 12.16 256.30 14.13L256.30 14.13Q256.30 15.02 256.50 15.75Q256.70 16.49 257.13 17.01Q257.56 17.54 258.24 17.82Q258.91 18.10 259.88 18.10L259.88 18.10Q260.65 18.10 261.28 17.96Q261.91 17.81 262.27 17.64L262.27 17.64L262.54 19.28Q262.37 19.38 262.06 19.48Q261.74 19.57 261.34 19.65Q260.95 19.72 260.49 19.77Q260.04 19.82 259.62 19.82ZM268.59 8.65L268.59 19.57L266.64 19.57L266.64 8.65L268.59 8.65ZM267.61 6.68L267.61 6.68Q267.08 6.68 266.72 6.33Q266.35 5.99 266.35 5.40L266.35 5.40Q266.35 4.81 266.72 4.46Q267.08 4.12 267.61 4.12L267.61 4.12Q268.13 4.12 268.50 4.46Q268.87 4.81 268.87 5.40L268.87 5.40Q268.87 5.99 268.50 6.33Q268.13 6.68 267.61 6.68ZM277.65 18.17L277.65 18.17Q278.34 18.17 278.88 18.13Q279.41 18.10 279.77 18.02L279.77 18.02L279.77 14.76Q279.56 14.66 279.09 14.58Q278.62 14.51 277.94 14.51L277.94 14.51Q277.50 14.51 277.01 14.57Q276.52 14.64 276.11 14.84Q275.70 15.04 275.42 15.38Q275.15 15.73 275.15 16.30L275.15 16.30Q275.15 17.35 275.82 17.76Q276.50 18.17 277.65 18.17ZM277.48 8.38L277.48 8.38Q278.66 8.38 279.47 8.68Q280.28 8.99 280.77 9.54Q281.26 10.10 281.47 10.87Q281.68 11.63 281.68 12.56L281.68 12.56L281.68 19.38Q281.43 19.43 280.98 19.50Q280.53 19.57 279.96 19.64Q279.39 19.70 278.73 19.75Q278.07 19.80 277.42 19.80L277.42 19.80Q276.50 19.80 275.72 19.61Q274.94 19.43 274.38 19.02Q273.81 18.61 273.49 17.93Q273.18 17.26 273.18 16.32L273.18 16.32Q273.18 15.41 273.55 14.76Q273.91 14.11 274.54 13.71Q275.17 13.31 276.01 13.13Q276.85 12.94 277.78 12.94L277.78 12.94Q278.07 12.94 278.39 12.97Q278.70 13.00 278.98 13.05Q279.27 13.10 279.48 13.15Q279.69 13.19 279.77 13.21L279.77 13.21L279.77 12.66Q279.77 12.18 279.67 11.71Q279.56 11.24 279.29 10.87Q279.02 10.50 278.54 10.28Q278.07 10.06 277.31 10.06L277.31 10.06Q276.35 10.06 275.62 10.20Q274.90 10.33 274.54 10.48L274.54 10.48L274.31 8.86Q274.69 8.69 275.57 8.54Q276.45 8.38 277.48 8.38ZM290.47 18.14L290.19 19.78Q288.39 19.74 287.63 19.01Q286.87 18.27 286.87 16.72L286.87 16.72L286.87 3.61L288.83 3.28L288.83 16.40Q288.83 16.88 288.91 17.20Q289.00 17.51 289.18 17.70Q289.37 17.89 289.69 17.99Q290.00 18.08 290.47 18.14L290.47 18.14Z" transform="translate(0, 0)"></path></g></svg> <svg x="156.5050048828125" y="252.0078125" viewBox="1.7699999809265137 4.449999809265137 373.9900207519531 71.1300048828125" height="71.1300048828125" width="373.9900207519531" style="overflow: visible;"><g fill="#FFF" fill-opacity="1" style=""><path d="M24.58 61.12L16.77 61.12L1.77 16.16L8.11 16.16L20.68 54.59L33.31 16.16L39.59 16.16L24.58 61.12ZM63.20 61.12L45.81 61.12L45.81 16.16L62.52 16.16Q68.56 16.16 71.52 19.09Q74.48 22.02 74.48 27.76L74.48 27.76Q74.48 30.56 73.66 32.60Q72.83 34.65 71.40 35.96Q69.97 37.27 68.20 37.76L68.20 37.76Q69.48 38.13 70.85 38.86Q72.22 39.59 73.41 40.90Q74.60 42.21 75.33 44.13Q76.07 46.05 76.07 48.68L76.07 48.68Q76.07 53.38 74.51 56.09Q72.96 58.80 70.09 59.96Q67.22 61.12 63.20 61.12L63.20 61.12ZM51.97 40.44L51.97 55.63L63.01 55.63Q65.21 55.63 66.80 54.90Q68.38 54.17 69.30 52.46Q70.21 50.75 70.21 47.64L70.21 47.64Q70.21 45.38 69.23 43.77Q68.26 42.15 66.64 41.30Q65.03 40.44 63.01 40.44L63.01 40.44L51.97 40.44ZM51.97 21.66L51.97 35.69L62.71 35.69Q65.33 35.69 66.95 33.76Q68.56 31.84 68.63 28.73L68.63 28.73Q68.75 24.77 66.98 23.21Q65.21 21.66 62.46 21.66L62.46 21.66L51.97 21.66ZM109.31 61.37L109.31 61.37Q107.79 61.37 106.08 61.09Q104.37 60.82 102.82 59.93Q101.26 59.05 100.28 57.22Q99.31 55.39 99.31 52.28L99.31 52.28L99.31 25.56Q99.31 22.88 100.13 21.05Q100.95 19.22 102.30 18.15Q103.64 17.08 105.32 16.62Q106.99 16.16 108.64 16.16L108.64 16.16Q112.61 16.23 115.93 16.32Q119.25 16.41 122.12 16.53Q124.99 16.65 127.61 16.77L127.61 16.77L127.61 21.84L110.29 21.84Q108.03 21.84 106.75 23.00Q105.47 24.16 105.47 26.66L105.47 26.66L105.47 35.99L124.87 36.36L124.87 41.11L105.47 41.54L105.47 50.75Q105.47 52.83 106.17 53.86Q106.87 54.90 108.00 55.27Q109.13 55.63 110.41 55.63L110.41 55.63L127.61 55.63L127.61 60.70Q124.81 60.88 121.69 61.03Q118.58 61.18 115.44 61.27Q112.30 61.37 109.31 61.37ZM115.96 12.87L112.36 12.87L118.28 4.45L123.40 4.45L115.96 12.87ZM148.47 61.18L144.20 61.18Q141.22 61.18 139.17 60.15Q137.13 59.11 136.12 56.82Q135.12 54.53 135.12 50.63L135.12 50.63L135.12 14.58L141.22 14.58L141.22 49.84Q141.22 52.40 141.73 53.77Q142.25 55.14 143.20 55.69Q144.14 56.24 145.42 56.42L145.42 56.42L148.47 56.79L148.47 61.18ZM166.29 61.49L166.29 61.49Q161.10 61.49 158.02 59.96Q154.94 58.44 153.63 54.81Q152.32 51.18 152.32 44.77L152.32 44.77Q152.32 38.25 153.63 34.62Q154.94 30.99 157.99 29.52Q161.04 28.06 166.23 28.06L166.23 28.06Q170.74 28.06 173.51 29.01Q176.29 29.95 177.60 32.36Q178.91 34.77 178.91 39.04L178.91 39.04Q178.91 42.03 177.72 43.80Q176.53 45.57 174.37 46.36Q172.20 47.15 169.21 47.15L169.21 47.15L158.42 47.15Q158.48 50.69 159.24 52.80Q160.00 54.90 161.99 55.85Q163.97 56.79 167.81 56.79L167.81 56.79L178.00 56.79L178.00 60.45Q175.38 60.82 172.63 61.15Q169.89 61.49 166.29 61.49ZM158.36 43.31L158.36 43.31L168.67 43.31Q171.11 43.31 172.26 42.39Q173.42 41.48 173.42 39.04L173.42 39.04Q173.42 36.60 172.72 35.20Q172.02 33.79 170.43 33.18Q168.85 32.57 166.23 32.57L166.23 32.57Q163.24 32.57 161.50 33.49Q159.76 34.40 159.06 36.72Q158.36 39.04 158.36 43.31ZM198.49 61.49L198.49 61.49Q195.63 61.49 193.22 60.73Q190.81 59.96 189.01 58.13Q187.21 56.30 186.23 53.07Q185.26 49.84 185.26 44.90L185.26 44.90Q185.26 39.83 186.17 36.57Q187.09 33.31 188.83 31.45Q190.56 29.59 193.06 28.85Q195.57 28.12 198.68 28.12L198.68 28.12Q201.24 28.12 204.08 28.37Q206.91 28.61 209.60 29.16L209.60 29.16L209.60 32.76L200.39 32.76Q197.40 32.76 195.38 33.70Q193.37 34.65 192.39 37.30Q191.42 39.95 191.42 44.96L191.42 44.96Q191.42 49.78 192.46 52.37Q193.49 54.96 195.47 55.88Q197.46 56.79 200.45 56.79L200.45 56.79L210.08 56.79L210.08 60.27Q208.68 60.63 206.76 60.91Q204.84 61.18 202.73 61.34Q200.63 61.49 198.49 61.49ZM232.47 61.12L227.53 61.12Q224.24 61.12 222.07 60.05Q219.91 58.99 218.90 56.61Q217.89 54.23 217.95 50.26L217.95 50.26L218.20 33.49L213.01 33.49L213.01 29.52L218.32 28.49L219.23 19.34L224.05 19.34L224.05 28.49L232.90 28.49L232.90 33.49L224.05 33.49L224.05 50.20Q224.05 52.09 224.42 53.25Q224.79 54.41 225.46 55.02Q226.13 55.63 226.92 55.91Q227.71 56.18 228.45 56.24L228.45 56.24L232.47 56.61L232.47 61.12ZM245.16 61.12L239.06 61.12L239.06 28.49L243.76 28.49L245.16 33.98Q247.23 31.48 249.80 29.77Q252.36 28.06 255.77 28.06L255.77 28.06Q256.57 28.06 257.30 28.15Q258.03 28.24 258.70 28.43L258.70 28.43L258.70 34.71Q257.85 34.59 256.93 34.50Q256.02 34.40 255.04 34.40L255.04 34.40Q252.97 34.40 251.32 34.89Q249.67 35.38 248.18 36.39Q246.68 37.39 245.16 38.86L245.16 38.86L245.16 61.12ZM269.80 23.00L265.29 23.00Q264.19 23.00 264.19 21.96L264.19 21.96L264.19 16.84Q264.19 15.74 265.29 15.74L265.29 15.74L269.80 15.74Q270.29 15.74 270.54 16.04Q270.78 16.35 270.78 16.84L270.78 16.84L270.78 21.96Q270.78 23.00 269.80 23.00L269.80 23.00ZM270.54 61.12L264.44 61.12L264.44 28.49L270.54 28.49L270.54 61.12ZM305.92 75.58L299.81 75.58L299.81 57.89Q297.68 59.41 294.97 60.45Q292.25 61.49 289.69 61.49L289.69 61.49Q285.36 61.49 282.77 59.66Q280.17 57.83 279.07 54.11Q277.98 50.39 277.98 44.77L277.98 44.77Q277.98 38.92 279.29 35.23Q280.60 31.54 283.31 29.80Q286.03 28.06 290.24 28.06L290.24 28.06Q293.17 28.06 296.06 28.21Q298.96 28.37 301.49 28.58Q304.02 28.79 305.92 29.04L305.92 29.04L305.92 75.58ZM291.27 56.49L291.27 56.49Q293.47 56.49 295.67 55.81Q297.86 55.14 299.81 54.05L299.81 54.05L299.81 32.76L291.88 32.76Q288.96 32.76 287.25 34.19Q285.54 35.62 284.84 38.25Q284.14 40.87 284.14 44.59L284.14 44.59Q284.14 48.98 284.87 51.61Q285.60 54.23 287.16 55.36Q288.71 56.49 291.27 56.49ZM323.85 61.49L323.85 61.49Q319.27 61.49 316.74 59.02Q314.21 56.55 314.21 51.48L314.21 51.48L314.21 28.49L320.31 28.49L320.31 49.84Q320.31 53.50 321.99 54.78Q323.67 56.06 326.72 56.06L326.72 56.06Q329.16 56.06 331.38 55.30Q333.61 54.53 335.74 53.19L335.74 53.19L335.74 28.49L341.84 28.49L341.84 61.12L336.96 61.12L335.74 57.65Q333.37 59.17 330.28 60.33Q327.20 61.49 323.85 61.49ZM363.13 61.49L363.13 61.49Q357.95 61.49 354.87 59.96Q351.79 58.44 350.48 54.81Q349.16 51.18 349.16 44.77L349.16 44.77Q349.16 38.25 350.48 34.62Q351.79 30.99 354.84 29.52Q357.89 28.06 363.07 28.06L363.07 28.06Q367.59 28.06 370.36 29.01Q373.14 29.95 374.45 32.36Q375.76 34.77 375.76 39.04L375.76 39.04Q375.76 42.03 374.57 43.80Q373.38 45.57 371.22 46.36Q369.05 47.15 366.06 47.15L366.06 47.15L355.26 47.15Q355.33 50.69 356.09 52.80Q356.85 54.90 358.83 55.85Q360.81 56.79 364.66 56.79L364.66 56.79L374.85 56.79L374.85 60.45Q372.22 60.82 369.48 61.15Q366.73 61.49 363.13 61.49ZM355.20 43.31L355.20 43.31L365.51 43.31Q367.95 43.31 369.11 42.39Q370.27 41.48 370.27 39.04L370.27 39.04Q370.27 36.60 369.57 35.20Q368.87 33.79 367.28 33.18Q365.69 32.57 363.07 32.57L363.07 32.57Q360.08 32.57 358.34 33.49Q356.61 34.40 355.90 36.72Q355.20 39.04 355.20 43.31Z" transform="translate(0, 0)"></path></g></svg></svg>